<svg width="154" height="34" viewBox="0 0 154 34" fill="none" xmlns="http://www.w3.org/2000/svg">
<path d="M16.56 26.53C16.12 26.53 15.75 26.39 15.45 26.11C15.17 25.81 15.03 25.44 15.03 25V17.62C15.03 16.48 14.82 15.55 14.4 14.83C13.98 14.11 13.41 13.58 12.69 13.24C11.99 12.88 11.18 12.7 10.26 12.7C9.42 12.7 8.66 12.87 7.98 13.21C7.3 13.55 6.76 14.01 6.36 14.59C5.96 15.15 5.76 15.8 5.76 16.54H3.87C3.87 15.28 4.17 14.16 4.77 13.18C5.39 12.18 6.23 11.39 7.29 10.81C8.35 10.23 9.54 9.94 10.86 9.94C12.24 9.94 13.47 10.24 14.55 10.84C15.65 11.42 16.51 12.28 17.13 13.42C17.77 14.56 18.09 15.96 18.09 17.62V25C18.09 25.44 17.94 25.81 17.64 26.11C17.36 26.39 17 26.53 16.56 26.53ZM4.23 26.53C3.79 26.53 3.42 26.39 3.12 26.11C2.84 25.81 2.7 25.44 2.7 25V11.62C2.7 11.16 2.84 10.79 3.12 10.51C3.42 10.23 3.79 10.09 4.23 10.09C4.69 10.09 5.06 10.23 5.34 10.51C5.62 10.79 5.76 11.16 5.76 11.62V25C5.76 25.44 5.62 25.81 5.34 26.11C5.06 26.39 4.69 26.53 4.23 26.53ZM29.9892 26.62C28.5292 26.62 27.2192 26.26 26.0592 25.54C24.8992 24.8 23.9792 23.81 23.2992 22.57C22.6392 21.31 22.3092 19.89 22.3092 18.31C22.3092 16.73 22.6692 15.31 23.3892 14.05C24.1292 12.79 25.1192 11.8 26.3592 11.08C27.6192 10.34 29.0292 9.97 30.5892 9.97C32.1492 9.97 33.5492 10.34 34.7892 11.08C36.0292 11.8 37.0092 12.79 37.7292 14.05C38.4692 15.31 38.8392 16.73 38.8392 18.31H37.6692C37.6692 19.89 37.3292 21.31 36.6492 22.57C35.9892 23.81 35.0792 24.8 33.9192 25.54C32.7592 26.26 31.4492 26.62 29.9892 26.62ZM30.5892 23.92C31.6092 23.92 32.5192 23.68 33.3192 23.2C34.1192 22.7 34.7492 22.03 35.2092 21.19C35.6692 20.33 35.8992 19.37 35.8992 18.31C35.8992 17.23 35.6692 16.27 35.2092 15.43C34.7492 14.57 34.1192 13.9 33.3192 13.42C32.5192 12.92 31.6092 12.67 30.5892 12.67C29.5892 12.67 28.6792 12.92 27.8592 13.42C27.0592 13.9 26.4192 14.57 25.9392 15.43C25.4792 16.27 25.2492 17.23 25.2492 18.31C25.2492 19.37 25.4792 20.33 25.9392 21.19C26.4192 22.03 27.0592 22.7 27.8592 23.2C28.6792 23.68 29.5892 23.92 30.5892 23.92ZM37.3092 26.53C36.8692 26.53 36.4992 26.39 36.1992 26.11C35.9192 25.81 35.7792 25.44 35.7792 25V20.41L36.3492 17.23L38.8392 18.31V25C38.8392 25.44 38.6892 25.81 38.3892 26.11C38.1092 26.39 37.7492 26.53 37.3092 26.53ZM45.2234 26.5C44.7834 26.5 44.4134 26.36 44.1134 26.08C43.8334 25.78 43.6934 25.41 43.6934 24.97V11.62C43.6934 11.16 43.8334 10.79 44.1134 10.51C44.4134 10.23 44.7834 10.09 45.2234 10.09C45.6834 10.09 46.0534 10.23 46.3334 10.51C46.6134 10.79 46.7534 11.16 46.7534 11.62V24.97C46.7534 25.41 46.6134 25.78 46.3334 26.08C46.0534 26.36 45.6834 26.5 45.2234 26.5ZM45.2234 7.42C44.6834 7.42 44.2134 7.23 43.8134 6.85C43.4334 6.45 43.2434 5.98 43.2434 5.44C43.2434 4.9 43.4334 4.44 43.8134 4.06C44.2134 3.66 44.6834 3.46 45.2234 3.46C45.7634 3.46 46.2234 3.66 46.6034 4.06C47.0034 4.44 47.2034 4.9 47.2034 5.44C47.2034 5.98 47.0034 6.45 46.6034 6.85C46.2234 7.23 45.7634 7.42 45.2234 7.42ZM53.9161 16.24C53.9161 15.04 54.2061 13.97 54.7861 13.03C55.3861 12.07 56.1861 11.31 57.1861 10.75C58.1861 10.19 59.2861 9.91 60.4861 9.91C61.6861 9.91 62.5761 10.11 63.1561 10.51C63.7561 10.89 63.9861 11.35 63.8461 11.89C63.7861 12.17 63.6661 12.39 63.4861 12.55C63.3261 12.69 63.1361 12.78 62.9161 12.82C62.6961 12.86 62.4561 12.85 62.1961 12.79C60.9161 12.53 59.7661 12.51 58.7461 12.73C57.7261 12.95 56.9161 13.36 56.3161 13.96C55.7361 14.56 55.4461 15.32 55.4461 16.24H53.9161ZM53.9461 26.5C53.4661 26.5 53.0961 26.38 52.8361 26.14C52.5761 25.88 52.4461 25.5 52.4461 25V11.59C52.4461 11.11 52.5761 10.74 52.8361 10.48C53.0961 10.22 53.4661 10.09 53.9461 10.09C54.4461 10.09 54.8161 10.22 55.0561 10.48C55.3161 10.72 55.4461 11.09 55.4461 11.59V25C55.4461 25.48 55.3161 25.85 55.0561 26.11C54.8161 26.37 54.4461 26.5 53.9461 26.5ZM72.6748 26.62C71.2148 26.62 69.9048 26.26 68.7448 25.54C67.5848 24.8 66.6648 23.81 65.9848 22.57C65.3248 21.31 64.9948 19.89 64.9948 18.31C64.9948 16.73 65.3548 15.31 66.0748 14.05C66.8148 12.79 67.8048 11.8 69.0448 11.08C70.3048 10.34 71.7148 9.97 73.2748 9.97C74.8348 9.97 76.2348 10.34 77.4748 11.08C78.7148 11.8 79.6948 12.79 80.4148 14.05C81.1548 15.31 81.5248 16.73 81.5248 18.31H80.3548C80.3548 19.89 80.0148 21.31 79.3348 22.57C78.6748 23.81 77.7648 24.8 76.6048 25.54C75.4448 26.26 74.1348 26.62 72.6748 26.62ZM73.2748 23.92C74.2948 23.92 75.2048 23.68 76.0048 23.2C76.8048 22.7 77.4348 22.03 77.8948 21.19C78.3548 20.33 78.5848 19.37 78.5848 18.31C78.5848 17.23 78.3548 16.27 77.8948 15.43C77.4348 14.57 76.8048 13.9 76.0048 13.42C75.2048 12.92 74.2948 12.67 73.2748 12.67C72.2748 12.67 71.3648 12.92 70.5448 13.42C69.7448 13.9 69.1048 14.57 68.6248 15.43C68.1648 16.27 67.9348 17.23 67.9348 18.31C67.9348 19.37 68.1648 20.33 68.6248 21.19C69.1048 22.03 69.7448 22.7 70.5448 23.2C71.3648 23.68 72.2748 23.92 73.2748 23.92ZM79.9948 26.53C79.5548 26.53 79.1848 26.39 78.8848 26.11C78.6048 25.81 78.4648 25.44 78.4648 25V20.41L79.0348 17.23L81.5248 18.31V25C81.5248 25.44 81.3748 25.81 81.0748 26.11C80.7948 26.39 80.4348 26.53 79.9948 26.53ZM89.9789 26.5C89.0989 26.5 88.3189 26.26 87.6389 25.78C86.9589 25.3 86.4289 24.65 86.0489 23.83C85.6689 22.99 85.4789 22.03 85.4789 20.95V4.57C85.4789 4.13 85.6189 3.77 85.8989 3.49C86.1789 3.21 86.5389 3.07 86.9789 3.07C87.4189 3.07 87.7789 3.21 88.0589 3.49C88.3389 3.77 88.4789 4.13 88.4789 4.57V20.95C88.4789 21.69 88.6189 22.3 88.8989 22.78C89.1789 23.26 89.5389 23.5 89.9789 23.5H90.7289C91.1289 23.5 91.4489 23.64 91.6889 23.92C91.9489 24.2 92.0789 24.56 92.0789 25C92.0789 25.44 91.8889 25.8 91.5089 26.08C91.1289 26.36 90.6389 26.5 90.0389 26.5H89.9789ZM101.005 26.62C99.5448 26.62 98.2348 26.26 97.0748 25.54C95.9148 24.8 94.9948 23.81 94.3148 22.57C93.6548 21.31 93.3248 19.89 93.3248 18.31C93.3248 16.73 93.6848 15.31 94.4048 14.05C95.1448 12.79 96.1348 11.8 97.3748 11.08C98.6348 10.34 100.045 9.97 101.605 9.97C103.165 9.97 104.565 10.34 105.805 11.08C107.045 11.8 108.025 12.79 108.745 14.05C109.485 15.31 109.855 16.73 109.855 18.31H108.685C108.685 19.89 108.345 21.31 107.665 22.57C107.005 23.81 106.095 24.8 104.935 25.54C103.775 26.26 102.465 26.62 101.005 26.62ZM101.605 23.92C102.625 23.92 103.535 23.68 104.335 23.2C105.135 22.7 105.765 22.03 106.225 21.19C106.685 20.33 106.915 19.37 106.915 18.31C106.915 17.23 106.685 16.27 106.225 15.43C105.765 14.57 105.135 13.9 104.335 13.42C103.535 12.92 102.625 12.67 101.605 12.67C100.605 12.67 99.6948 12.92 98.8748 13.42C98.0748 13.9 97.4348 14.57 96.9548 15.43C96.4948 16.27 96.2648 17.23 96.2648 18.31C96.2648 19.37 96.4948 20.33 96.9548 21.19C97.4348 22.03 98.0748 22.7 98.8748 23.2C99.6948 23.68 100.605 23.92 101.605 23.92ZM108.325 26.53C107.885 26.53 107.515 26.39 107.215 26.11C106.935 25.81 106.795 25.44 106.795 25V20.41L107.365 17.23L109.855 18.31V25C109.855 25.44 109.705 25.81 109.405 26.11C109.125 26.39 108.765 26.53 108.325 26.53ZM128.269 26.53C127.829 26.53 127.459 26.39 127.159 26.11C126.879 25.81 126.739 25.44 126.739 25V17.62C126.739 16.48 126.529 15.55 126.109 14.83C125.689 14.11 125.119 13.58 124.399 13.24C123.699 12.88 122.889 12.7 121.969 12.7C121.129 12.7 120.369 12.87 119.689 13.21C119.009 13.55 118.469 14.01 118.069 14.59C117.669 15.15 117.469 15.8 117.469 16.54H115.579C115.579 15.28 115.879 14.16 116.479 13.18C117.099 12.18 117.939 11.39 118.999 10.81C120.059 10.23 121.249 9.94 122.569 9.94C123.949 9.94 125.179 10.24 126.259 10.84C127.359 11.42 128.219 12.28 128.839 13.42C129.479 14.56 129.799 15.96 129.799 17.62V25C129.799 25.44 129.649 25.81 129.349 26.11C129.069 26.39 128.709 26.53 128.269 26.53ZM115.939 26.53C115.499 26.53 115.129 26.39 114.829 26.11C114.549 25.81 114.409 25.44 114.409 25V11.62C114.409 11.16 114.549 10.79 114.829 10.51C115.129 10.23 115.499 10.09 115.939 10.09C116.399 10.09 116.769 10.23 117.049 10.51C117.329 10.79 117.469 11.16 117.469 11.62V25C117.469 25.44 117.329 25.81 117.049 26.11C116.769 26.39 116.399 26.53 115.939 26.53ZM142.298 26.62C140.738 26.62 139.328 26.26 138.068 25.54C136.828 24.8 135.838 23.8 135.098 22.54C134.378 21.28 134.018 19.86 134.018 18.28C134.018 16.7 134.348 15.29 135.008 14.05C135.688 12.79 136.608 11.8 137.768 11.08C138.928 10.34 140.238 9.97 141.698 9.97C142.878 9.97 143.968 10.22 144.968 10.72C145.968 11.2 146.808 11.86 147.488 12.7V4.6C147.488 4.14 147.628 3.77 147.908 3.49C148.208 3.21 148.578 3.07 149.018 3.07C149.478 3.07 149.848 3.21 150.128 3.49C150.408 3.77 150.548 4.14 150.548 4.6V18.28C150.548 19.86 150.178 21.28 149.438 22.54C148.718 23.8 147.738 24.8 146.498 25.54C145.258 26.26 143.858 26.62 142.298 26.62ZM142.298 23.92C143.318 23.92 144.228 23.68 145.028 23.2C145.828 22.7 146.458 22.02 146.918 21.16C147.378 20.3 147.608 19.34 147.608 18.28C147.608 17.2 147.378 16.24 146.918 15.4C146.458 14.56 145.828 13.9 145.028 13.42C144.228 12.92 143.318 12.67 142.298 12.67C141.298 12.67 140.388 12.92 139.568 13.42C138.768 13.9 138.128 14.56 137.648 15.4C137.188 16.24 136.958 17.2 136.958 18.28C136.958 19.34 137.188 20.3 137.648 21.16C138.128 22.02 138.768 22.7 139.568 23.2C140.388 23.68 141.298 23.92 142.298 23.92Z" fill="#050B06"/>
<rect x="43" y="2" width="4.28571" height="6" rx="2.14286" fill="#4F9F5E"/>
</svg>
