<?xml version="1.0" encoding="UTF-8"?>
<!DOCTYPE svg PUBLIC "-//W3C//DTD SVG 1.1//EN" "http://www.w3.org/Graphics/SVG/1.1/DTD/svg11.dtd">
<svg xmlns="http://www.w3.org/2000/svg" version="1.1" width="256px" height="330px" style="shape-rendering:geometricPrecision; text-rendering:geometricPrecision; image-rendering:optimizeQuality; fill-rule:evenodd; clip-rule:evenodd" xmlns:xlink="http://www.w3.org/1999/xlink">
<g><path style="opacity:1" fill="#7aadbd" d="M 206.5,-0.5 C 209.5,-0.5 212.5,-0.5 215.5,-0.5C 219.56,1.29652 223.06,3.96319 226,7.5C 226.985,9.36592 227.485,11.3659 227.5,13.5C 225.303,22.4237 222.303,31.0904 218.5,39.5C 216.955,40.4519 215.288,40.7852 213.5,40.5C 212.833,40.5 212.167,40.5 211.5,40.5C 210.694,39.2719 209.694,38.2719 208.5,37.5C 209.552,37.6495 210.552,37.4828 211.5,37C 210.398,34.5991 210.231,32.0991 211,29.5C 213.103,24.8574 214.603,20.0241 215.5,15C 214.06,9.40208 210.726,8.06874 205.5,11C 198.833,13.6667 192.167,16.3333 185.5,19C 184.829,19.9862 184.829,21.1529 185.5,22.5C 182.702,21.2937 180.535,19.2937 179,16.5C 177.798,14.3225 177.298,11.9892 177.5,9.5C 186.766,4.96686 196.433,1.63353 206.5,-0.5 Z"/></g>
<g><path style="opacity:0.985" fill="#fdfefe" d="M 177.5,9.5 C 177.298,11.9892 177.798,14.3225 179,16.5C 180.535,19.2937 182.702,21.2937 185.5,22.5C 193.113,29.977 201.779,35.977 211.5,40.5C 211.5,40.8333 211.5,41.1667 211.5,41.5C 211.389,42.1174 211.056,42.6174 210.5,43C 213.394,43.8686 214.561,45.7019 214,48.5C 207.79,60.0352 200.79,71.0352 193,81.5C 193.343,83.4568 193.177,85.1235 192.5,86.5C 190.999,85.2485 189.332,84.2485 187.5,83.5C 170.357,73.5098 153.69,74.1764 137.5,85.5C 124.168,95.8405 118.168,109.507 119.5,126.5C 118.521,125.307 118.021,122.64 118,118.5C 117.667,122.833 117.333,127.167 117,131.5C 116.667,131.833 116.333,132.167 116,132.5C 111.074,128.55 109.241,123.55 110.5,117.5C 109.96,116.252 109.293,115.085 108.5,114C 108.678,109.289 108.678,104.623 108.5,100C 108.208,96.9545 106.708,94.7879 104,93.5C 100.749,95.0774 97.7489,97.0774 95,99.5C 89.0386,107.767 83.8719,116.433 79.5,125.5C 79.5,124.5 79.5,123.5 79.5,122.5C 80.9313,121.22 81.5979,119.553 81.5,117.5C 92.4412,90.2694 107.441,65.6027 126.5,43.5C 127.167,43.5 127.5,43.1667 127.5,42.5C 128.167,42.5 128.5,42.1667 128.5,41.5C 129.167,41.5 129.5,41.1667 129.5,40.5C 130.167,40.5 130.5,40.1667 130.5,39.5C 141.428,30.031 153.095,21.531 165.5,14C 169.219,11.6361 173.219,10.1361 177.5,9.5 Z"/></g>
<g><path style="opacity:1" fill="#81b4c4" d="M 208.5,37.5 C 200.546,32.8674 192.879,27.8674 185.5,22.5C 184.829,21.1529 184.829,19.9862 185.5,19C 192.167,16.3333 198.833,13.6667 205.5,11C 210.726,8.06874 214.06,9.40208 215.5,15C 214.603,20.0241 213.103,24.8574 211,29.5C 210.231,32.0991 210.398,34.5991 211.5,37C 210.552,37.4828 209.552,37.6495 208.5,37.5 Z"/></g>
<g><path style="opacity:1" fill="#64919f" d="M 224.5,0.5 C 229.086,1.45979 233.086,3.45979 236.5,6.5C 237.437,9.26946 238.604,11.9361 240,14.5C 241.89,25.8384 241.89,37.1718 240,48.5C 238.246,50.25 236.079,50.9167 233.5,50.5C 229.182,49.0078 225.182,47.0078 221.5,44.5C 223.911,44.8633 225.411,43.8633 226,41.5C 228.686,32.9459 230.853,24.2792 232.5,15.5C 232.705,12.2054 231.872,9.20545 230,6.5C 227.96,4.62976 226.127,2.62976 224.5,0.5 Z"/></g>
<g><path style="opacity:0.012" fill="#fefefd" d="M 154.5,18.5 C 155.833,19.1667 155.833,19.1667 154.5,18.5 Z"/></g>
<g><path style="opacity:1" fill="#557984" d="M 236.5,6.5 C 240.73,9.95335 243.73,14.2867 245.5,19.5C 246.934,30.0358 248.6,40.5358 250.5,51C 250.355,51.772 250.022,52.4387 249.5,53C 246.854,53.4974 244.187,53.6641 241.5,53.5C 238.557,53.0198 235.89,52.0198 233.5,50.5C 236.079,50.9167 238.246,50.25 240,48.5C 241.89,37.1718 241.89,25.8384 240,14.5C 238.604,11.9361 237.437,9.26946 236.5,6.5 Z"/></g>
<g><path style="opacity:1" fill="#70a1b0" d="M 215.5,-0.5 C 218.5,-0.5 221.5,-0.5 224.5,-0.5C 224.5,-0.166667 224.5,0.166667 224.5,0.5C 226.127,2.62976 227.96,4.62976 230,6.5C 231.872,9.20545 232.705,12.2054 232.5,15.5C 230.853,24.2792 228.686,32.9459 226,41.5C 225.411,43.8633 223.911,44.8633 221.5,44.5C 218.515,43.6743 215.849,42.341 213.5,40.5C 215.288,40.7852 216.955,40.4519 218.5,39.5C 222.303,31.0904 225.303,22.4237 227.5,13.5C 227.485,11.3659 226.985,9.36592 226,7.5C 223.06,3.96319 219.56,1.29652 215.5,-0.5 Z"/></g>
<g><path style="opacity:0.008" fill="#fdfefd" d="M 145.5,24.5 C 146.833,25.1667 146.833,25.1667 145.5,24.5 Z"/></g>
<g><path style="opacity:0.008" fill="#fdfefd" d="M 141.5,27.5 C 142.833,28.1667 142.833,28.1667 141.5,27.5 Z"/></g>
<g><path style="opacity:0.01" fill="#617379" d="M 251.5,30.5 C 251.167,30.5 250.833,30.5 250.5,30.5C 250.833,26.5 251.167,26.5 251.5,30.5 Z"/></g>
<g><path style="opacity:0.994" fill="#5d6f76" d="M 245.5,19.5 C 247.36,23.0825 249.027,26.7492 250.5,30.5C 250.898,34.7607 251.898,38.7607 253.5,42.5C 254.08,46.81 254.414,51.1434 254.5,55.5C 253.817,57.1765 252.483,57.8432 250.5,57.5C 249.833,57.5 249.167,57.5 248.5,57.5C 247.508,57.6716 246.842,57.3382 246.5,56.5C 248.924,56.8076 251.257,56.4742 253.5,55.5C 253.333,55.1667 253.167,54.8333 253,54.5C 248.993,55.6343 245.159,55.301 241.5,53.5C 244.187,53.6641 246.854,53.4974 249.5,53C 250.022,52.4387 250.355,51.772 250.5,51C 248.6,40.5358 246.934,30.0358 245.5,19.5 Z"/></g>
<g><path style="opacity:0.008" fill="#657479" d="M 251.5,30.5 C 252.573,31.2506 252.74,32.2506 252,33.5C 251.517,32.552 251.351,31.552 251.5,30.5 Z"/></g>
<g><path style="opacity:1" fill="#67848f" d="M 185.5,22.5 C 192.879,27.8674 200.546,32.8674 208.5,37.5C 209.694,38.2719 210.694,39.2719 211.5,40.5C 201.779,35.977 193.113,29.977 185.5,22.5 Z"/></g>
<g><path style="opacity:0.009" fill="#667479" d="M 252.5,34.5 C 253.573,35.2506 253.74,36.2506 253,37.5C 252.517,36.552 252.351,35.552 252.5,34.5 Z"/></g>
<g><path style="opacity:0.004" fill="#fefefe" d="M 130.5,39.5 C 129.833,39.5 129.5,39.8333 129.5,40.5C 128.833,40.5 128.5,40.8333 128.5,41.5C 127.833,41.5 127.5,41.8333 127.5,42.5C 126.833,42.5 126.5,42.8333 126.5,43.5C 125.882,41.3364 126.882,39.6697 129.5,38.5C 130.107,38.6236 130.44,38.9569 130.5,39.5 Z"/></g>
<g><path style="opacity:0.009" fill="#64737a" d="M 254.5,42.5 C 254.167,42.5 253.833,42.5 253.5,42.5C 253.833,37.1667 254.167,37.1667 254.5,42.5 Z"/></g>
<g><path style="opacity:0.01" fill="#697478" d="M 254.5,42.5 C 254.833,42.5 255.167,42.5 255.5,42.5C 255.5,43.8333 255.5,45.1667 255.5,46.5C 254.566,45.4324 254.232,44.099 254.5,42.5 Z"/></g>
<g><path style="opacity:1" fill="#f1f2f2" d="M 211.5,41.5 C 214.696,42.9287 217.696,44.5954 220.5,46.5C 220.712,48.3841 221.712,49.7174 223.5,50.5C 222.147,51.6853 220.98,53.0186 220,54.5C 213.833,66.8333 207.667,79.1667 201.5,91.5C 200.675,92.3857 199.675,92.719 198.5,92.5C 197.833,92.5 197.5,92.1667 197.5,91.5C 195.64,90.0613 193.973,88.3947 192.5,86.5C 193.177,85.1235 193.343,83.4568 193,81.5C 200.79,71.0352 207.79,60.0352 214,48.5C 214.561,45.7019 213.394,43.8686 210.5,43C 211.056,42.6174 211.389,42.1174 211.5,41.5 Z"/></g>
<g><path style="opacity:1" fill="#485b62" d="M 211.5,41.5 C 211.5,41.1667 211.5,40.8333 211.5,40.5C 212.167,40.5 212.833,40.5 213.5,40.5C 215.849,42.341 218.515,43.6743 221.5,44.5C 225.182,47.0078 229.182,49.0078 233.5,50.5C 235.89,52.0198 238.557,53.0198 241.5,53.5C 245.159,55.301 248.993,55.6343 253,54.5C 253.167,54.8333 253.333,55.1667 253.5,55.5C 251.257,56.4742 248.924,56.8076 246.5,56.5C 244.784,56.3713 243.117,56.038 241.5,55.5C 239.833,54.8333 238.167,54.1667 236.5,53.5C 231.167,51.1667 225.833,48.8333 220.5,46.5C 217.696,44.5954 214.696,42.9287 211.5,41.5 Z"/></g>
<g><path style="opacity:1" fill="#e4e5e5" d="M 220.5,46.5 C 225.833,48.8333 231.167,51.1667 236.5,53.5C 233.358,52.7846 230.525,53.7846 228,56.5C 224,65.8333 220,75.1667 216,84.5C 213.086,90.8914 209.253,96.5581 204.5,101.5C 203.833,100.5 203.167,99.5 202.5,98.5C 201.559,96.2279 200.226,94.2279 198.5,92.5C 199.675,92.719 200.675,92.3857 201.5,91.5C 207.667,79.1667 213.833,66.8333 220,54.5C 220.98,53.0186 222.147,51.6853 223.5,50.5C 221.712,49.7174 220.712,48.3841 220.5,46.5 Z"/></g>
<g><path style="opacity:1" fill="#d8d9d9" d="M 236.5,53.5 C 238.167,54.1667 239.833,54.8333 241.5,55.5C 238.759,56.0827 236.092,57.0827 233.5,58.5C 229.218,71.8464 224.051,84.8464 218,97.5C 215.636,102.362 212.136,106.028 207.5,108.5C 206.695,106.085 205.695,103.751 204.5,101.5C 209.253,96.5581 213.086,90.8914 216,84.5C 220,75.1667 224,65.8333 228,56.5C 230.525,53.7846 233.358,52.7846 236.5,53.5 Z"/></g>
<g><path style="opacity:1" fill="#cccccc" d="M 241.5,55.5 C 243.117,56.038 244.784,56.3713 246.5,56.5C 246.842,57.3382 247.508,57.6716 248.5,57.5C 245.695,58.3195 242.695,58.8195 239.5,59C 239,59.5 238.5,60 238,60.5C 234.139,80.9372 226.306,99.6038 214.5,116.5C 213.192,117.626 211.858,117.626 210.5,116.5C 209.833,115.833 209.167,115.167 208.5,114.5C 208.5,114.167 208.5,113.833 208.5,113.5C 207.962,111.883 207.629,110.216 207.5,108.5C 212.136,106.028 215.636,102.362 218,97.5C 224.051,84.8464 229.218,71.8464 233.5,58.5C 236.092,57.0827 238.759,56.0827 241.5,55.5 Z"/></g>
<g><path style="opacity:1" fill="#c0c0c0" d="M 248.5,57.5 C 249.167,57.5 249.833,57.5 250.5,57.5C 250.918,58.2216 251.584,58.7216 252.5,59C 252.272,59.3988 251.938,59.5654 251.5,59.5C 247.993,58.9935 244.826,59.6602 242,61.5C 237.863,85.5983 228.863,107.598 215,127.5C 214.148,126.429 213.315,125.429 212.5,124.5C 212.011,123.005 211.345,121.671 210.5,120.5C 210.5,119.167 210.5,117.833 210.5,116.5C 211.858,117.626 213.192,117.626 214.5,116.5C 226.306,99.6038 234.139,80.9372 238,60.5C 238.5,60 239,59.5 239.5,59C 242.695,58.8195 245.695,58.3195 248.5,57.5 Z"/></g>
<g><path style="opacity:1" fill="#b3b4b3" d="M 251.5,59.5 C 250.048,60.3019 248.382,60.8019 246.5,61C 245.874,61.7504 245.374,62.5838 245,63.5C 241.262,89.8983 231.762,113.898 216.5,135.5C 215.143,133.435 213.81,131.435 212.5,129.5C 212.5,127.833 212.5,126.167 212.5,124.5C 213.315,125.429 214.148,126.429 215,127.5C 228.863,107.598 237.863,85.5983 242,61.5C 244.826,59.6602 247.993,58.9935 251.5,59.5 Z"/></g>
<g><path style="opacity:1" fill="#a7a7a7" d="M 254.5,55.5 C 254.833,55.5 255.167,55.5 255.5,55.5C 255.5,56.8333 255.5,58.1667 255.5,59.5C 254.833,59.8333 254.167,60.1667 253.5,60.5C 250.921,60.8524 249.087,62.1858 248,64.5C 243.875,92.547 234.042,118.38 218.5,142C 217.365,142.749 216.365,142.583 215.5,141.5C 215.024,138.207 214.024,135.207 212.5,132.5C 212.5,131.5 212.5,130.5 212.5,129.5C 213.81,131.435 215.143,133.435 216.5,135.5C 231.762,113.898 241.262,89.8983 245,63.5C 245.374,62.5838 245.874,61.7504 246.5,61C 248.382,60.8019 250.048,60.3019 251.5,59.5C 251.938,59.5654 252.272,59.3988 252.5,59C 251.584,58.7216 250.918,58.2216 250.5,57.5C 252.483,57.8432 253.817,57.1765 254.5,55.5 Z"/></g>
<g><path style="opacity:1" fill="#9a9a9a" d="M 253.5,60.5 C 251.132,76.5023 247.299,92.169 242,107.5C 236.302,119.6 230.802,131.767 225.5,144C 226,144.5 226.5,145 227,145.5C 242.542,128.418 251.542,108.418 254,85.5C 254.383,84.944 254.883,84.6107 255.5,84.5C 255.5,85.8333 255.5,87.1667 255.5,88.5C 254.356,92.9637 253.69,97.6304 253.5,102.5C 252.549,103.919 252.216,105.585 252.5,107.5C 251.566,108.568 251.232,109.901 251.5,111.5C 250.076,113.515 249.41,115.848 249.5,118.5C 248.596,119.209 248.263,120.209 248.5,121.5C 247.069,122.78 246.402,124.447 246.5,126.5C 245.596,127.209 245.263,128.209 245.5,129.5C 244.662,129.842 244.328,130.508 244.5,131.5C 243.326,132.514 242.66,133.847 242.5,135.5C 241.325,135.281 240.325,135.614 239.5,136.5C 229.434,153.274 217.434,168.607 203.5,182.5C 201.626,184.915 200.293,187.581 199.5,190.5C 196.99,190.054 194.99,190.72 193.5,192.5C 193.167,192.5 192.833,192.5 192.5,192.5C 190.201,193.138 188.034,194.138 186,195.5C 184.961,194.756 184.461,193.756 184.5,192.5C 190.427,186.29 189.761,181.123 182.5,177C 178.429,175.37 174.429,173.87 170.5,172.5C 181.897,174.685 192.897,173.519 203.5,169C 207.52,165.989 210.353,162.156 212,157.5C 212.5,149.173 212.666,140.84 212.5,132.5C 214.024,135.207 215.024,138.207 215.5,141.5C 216.365,142.583 217.365,142.749 218.5,142C 234.042,118.38 243.875,92.547 248,64.5C 249.087,62.1858 250.921,60.8524 253.5,60.5 Z"/></g>
<g><path style="opacity:0.998" fill="#898989" d="M 255.5,59.5 C 255.5,67.8333 255.5,76.1667 255.5,84.5C 254.883,84.6107 254.383,84.944 254,85.5C 251.542,108.418 242.542,128.418 227,145.5C 226.5,145 226,144.5 225.5,144C 230.802,131.767 236.302,119.6 242,107.5C 247.299,92.169 251.132,76.5023 253.5,60.5C 254.167,60.1667 254.833,59.8333 255.5,59.5 Z"/></g>
<g><path style="opacity:0.012" fill="#fdfefd" d="M 101.5,73.5 C 102.833,74.1667 102.833,74.1667 101.5,73.5 Z"/></g>
<g><path style="opacity:1" fill="#91c1cf" d="M 187.5,83.5 C 186.325,83.281 185.325,83.6143 184.5,84.5C 185.711,86.4219 187.044,88.2552 188.5,90C 188,90.1667 187.5,90.3333 187,90.5C 169.739,80.5894 152.906,81.2561 136.5,92.5C 135.479,91.9984 135.312,91.3317 136,90.5C 137.5,89 139,87.5 140.5,86C 139.552,85.5172 138.552,85.3505 137.5,85.5C 153.69,74.1764 170.357,73.5098 187.5,83.5 Z"/></g>
<g><path style="opacity:1" fill="#f4f6f7" d="M 119.5,126.5 C 119.833,126.5 120.167,126.5 120.5,126.5C 122.056,134.27 124.722,141.603 128.5,148.5C 129.34,151.174 129.84,153.841 130,156.5C 125.978,159.963 121.811,163.296 117.5,166.5C 116.614,167.325 116.281,168.325 116.5,169.5C 110.91,173.678 104.577,176.678 97.5,178.5C 96.914,178.291 96.414,177.957 96,177.5C 93.2241,180.564 90.0574,182.231 86.5,182.5C 82.5751,185.076 79.2418,188.243 76.5,192C 74.8068,192.847 73.1401,193.68 71.5,194.5C 71.5,193.5 71.5,192.5 71.5,191.5C 75.0729,173.542 79.7396,155.875 85.5,138.5C 86.4345,137.432 86.7678,136.099 86.5,134.5C 87.4731,132.052 87.8064,129.385 87.5,126.5C 84.0272,126.576 80.6939,127.242 77.5,128.5C 77.9321,127.29 78.5987,126.29 79.5,125.5C 83.8719,116.433 89.0386,107.767 95,99.5C 97.7489,97.0774 100.749,95.0774 104,93.5C 106.708,94.7879 108.208,96.9545 108.5,100C 108.678,104.623 108.678,109.289 108.5,114C 109.293,115.085 109.96,116.252 110.5,117.5C 109.241,123.55 111.074,128.55 116,132.5C 116.333,132.167 116.667,131.833 117,131.5C 117.333,127.167 117.667,122.833 118,118.5C 118.021,122.64 118.521,125.307 119.5,126.5 Z"/></g>
<g><path style="opacity:0.009" fill="#979797" d="M 255.5,97.5 C 255.5,99.1667 255.5,100.833 255.5,102.5C 255.167,102.5 254.833,102.5 254.5,102.5C 254.216,100.585 254.549,98.9187 255.5,97.5 Z"/></g>
<g><path style="opacity:0.01" fill="#969696" d="M 253.5,102.5 C 253.833,102.5 254.167,102.5 254.5,102.5C 254.167,107.833 253.833,107.833 253.5,102.5 Z"/></g>
<g><path style="opacity:1" fill="#678d97" d="M 202.5,98.5 C 203.167,99.5 203.833,100.5 204.5,101.5C 205.695,103.751 206.695,106.085 207.5,108.5C 207.629,110.216 207.962,111.883 208.5,113.5C 207.259,143.08 191.925,160.08 162.5,164.5C 151.886,164.524 142.886,160.857 135.5,153.5C 137.5,154.167 139.5,154.833 141.5,155.5C 143.565,155.517 145.565,155.85 147.5,156.5C 148.975,158.41 150.975,159.576 153.5,160C 169.668,163.051 183.501,158.884 195,147.5C 196.04,144.075 198.04,141.408 201,139.5C 205.348,126.622 205.515,113.789 201.5,101C 201.528,99.9302 201.861,99.0968 202.5,98.5 Z"/></g>
<g><path style="opacity:0.012" fill="#9b9b9b" d="M 252.5,107.5 C 253.573,108.251 253.74,109.251 253,110.5C 252.517,109.552 252.351,108.552 252.5,107.5 Z"/></g>
<g><path style="opacity:0.008" fill="#fdfdfd" d="M 81.5,112.5 C 82.525,112.897 82.6917,113.563 82,114.5C 81.5357,113.906 81.369,113.239 81.5,112.5 Z"/></g>
<g><path style="opacity:0.008" fill="#9e9e9e" d="M 251.5,111.5 C 252.573,112.251 252.74,113.251 252,114.5C 251.517,113.552 251.351,112.552 251.5,111.5 Z"/></g>
<g><path style="opacity:0.01" fill="#fbfcfc" d="M 81.5,117.5 C 81.1667,117.5 80.8333,117.5 80.5,117.5C 80.8333,114.833 81.1667,114.833 81.5,117.5 Z"/></g>
<g><path style="opacity:0.008" fill="#a0a1a1" d="M 250.5,115.5 C 251.525,115.897 251.692,116.563 251,117.5C 250.536,116.906 250.369,116.239 250.5,115.5 Z"/></g>
<g><path style="opacity:0.008" fill="#fcfdfc" d="M 80.5,117.5 C 80.631,118.239 80.4643,118.906 80,119.5C 79.3083,118.563 79.475,117.897 80.5,117.5 Z"/></g>
<g><path style="opacity:0.008" fill="#a2a2a2" d="M 249.5,118.5 C 250.525,118.897 250.692,119.563 250,120.5C 249.536,119.906 249.369,119.239 249.5,118.5 Z"/></g>
<g><path style="opacity:0.01" fill="#fbfcfc" d="M 79.5,122.5 C 79.1667,122.5 78.8333,122.5 78.5,122.5C 78.8333,119.833 79.1667,119.833 79.5,122.5 Z"/></g>
<g><path style="opacity:0.008" fill="#fbfcfc" d="M 78.5,122.5 C 78.631,123.239 78.4643,123.906 78,124.5C 77.3083,123.563 77.475,122.897 78.5,122.5 Z"/></g>
<g><path style="opacity:0.008" fill="#a5a5a4" d="M 248.5,121.5 C 249.525,121.897 249.692,122.563 249,123.5C 248.536,122.906 248.369,122.239 248.5,121.5 Z"/></g>
<g><path style="opacity:0.004" fill="#a7a7a6" d="M 247.5,126.5 C 247.369,125.761 247.536,125.094 248,124.5C 248.692,125.437 248.525,126.103 247.5,126.5 Z"/></g>
<g><path style="opacity:1" fill="#80b0bd" d="M 187.5,83.5 C 189.332,84.2485 190.999,85.2485 192.5,86.5C 193.973,88.3947 195.64,90.0613 197.5,91.5C 196.957,91.56 196.624,91.8933 196.5,92.5C 198.612,98.6782 200.445,105.012 202,111.5C 204.66,133.693 195.826,149.193 175.5,158C 166.093,158.731 156.76,158.231 147.5,156.5C 145.565,155.85 143.565,155.517 141.5,155.5C 130.524,144.215 123.69,130.548 121,114.5C 120.501,118.486 120.334,122.486 120.5,126.5C 120.167,126.5 119.833,126.5 119.5,126.5C 118.168,109.507 124.168,95.8405 137.5,85.5C 138.552,85.3505 139.552,85.5172 140.5,86C 139,87.5 137.5,89 136,90.5C 135.312,91.3317 135.479,91.9984 136.5,92.5C 152.906,81.2561 169.739,80.5894 187,90.5C 187.5,90.3333 188,90.1667 188.5,90C 187.044,88.2552 185.711,86.4219 184.5,84.5C 185.325,83.6143 186.325,83.281 187.5,83.5 Z"/></g>
<g><path style="opacity:1" fill="#28292a" d="M 193.5,127.5 C 193.167,129.5 192.833,131.5 192.5,133.5C 188.833,140.5 183.5,145.833 176.5,149.5C 170.302,151.183 163.969,151.849 157.5,151.5C 152.977,149.672 148.643,147.339 144.5,144.5C 139.993,140.825 136.993,136.158 135.5,130.5C 136.403,128.863 136.403,127.029 135.5,125C 135.669,122.833 136.836,121.666 139,121.5C 145.878,123.803 152.878,125.47 160,126.5C 164.517,125.553 169.017,124.386 173.5,123C 177.5,121 181.5,119 185.5,117C 187.769,116.242 189.936,116.409 192,117.5C 192.333,116.5 192.667,115.5 193,114.5C 193.499,118.821 193.666,123.154 193.5,127.5 Z"/></g>
<g><path style="opacity:1" fill="#6f9ca8" d="M 192.5,133.5 C 192.833,131.5 193.167,129.5 193.5,127.5C 194.648,123.019 194.815,118.352 194,113.5C 193.33,110.826 192.163,108.493 190.5,106.5C 189.551,104.223 188.218,102.223 186.5,100.5C 185.107,97.5657 183.107,95.0657 180.5,93C 176.363,92.0656 172.363,90.7322 168.5,89C 163.845,88.5008 159.179,88.3342 154.5,88.5C 136.713,93.3907 128.88,105.057 131,123.5C 131.223,125.881 132.39,127.547 134.5,128.5C 134.328,129.492 134.662,130.158 135.5,130.5C 136.993,136.158 139.993,140.825 144.5,144.5C 143.883,144.611 143.383,144.944 143,145.5C 138,141.833 133.667,137.5 130,132.5C 124.393,110.875 131.893,95.3755 152.5,86C 158.5,85.3333 164.5,85.3333 170.5,86C 176.567,88.1213 182.401,90.6213 188,93.5C 197.885,105.94 199.885,119.607 194,134.5C 193.617,133.944 193.117,133.611 192.5,133.5 Z"/></g>
<g><path style="opacity:1" fill="#5c828c" d="M 154.5,88.5 C 148.702,91.1083 143.536,94.775 139,99.5C 137.555,102.09 136.388,104.757 135.5,107.5C 135.5,108.167 135.5,108.833 135.5,109.5C 133.28,115.707 132.946,122.04 134.5,128.5C 132.39,127.547 131.223,125.881 131,123.5C 128.88,105.057 136.713,93.3907 154.5,88.5 Z"/></g>
<g><path style="opacity:1" fill="#2e2e2f" d="M 190.5,106.5 C 192.163,108.493 193.33,110.826 194,113.5C 194.815,118.352 194.648,123.019 193.5,127.5C 193.666,123.154 193.499,118.821 193,114.5C 192.667,115.5 192.333,116.5 192,117.5C 189.936,116.409 187.769,116.242 185.5,117C 181.5,119 177.5,121 173.5,123C 169.017,124.386 164.517,125.553 160,126.5C 152.878,125.47 145.878,123.803 139,121.5C 136.836,121.666 135.669,122.833 135.5,125C 136.403,127.029 136.403,128.863 135.5,130.5C 134.662,130.158 134.328,129.492 134.5,128.5C 132.946,122.04 133.28,115.707 135.5,109.5C 143.195,115.76 152.029,119.76 162,121.5C 171.13,119.187 178.963,114.687 185.5,108C 187.247,107.648 188.914,107.148 190.5,106.5 Z"/></g>
<g><path style="opacity:1" fill="#363636" d="M 182.5,98.5 C 182.833,98.5 183.167,98.5 183.5,98.5C 184.5,99.1667 185.5,99.8333 186.5,100.5C 188.218,102.223 189.551,104.223 190.5,106.5C 188.914,107.148 187.247,107.648 185.5,108C 178.963,114.687 171.13,119.187 162,121.5C 152.029,119.76 143.195,115.76 135.5,109.5C 135.5,108.833 135.5,108.167 135.5,107.5C 136.167,107.167 136.833,106.833 137.5,106.5C 139.395,105.027 141.061,103.36 142.5,101.5C 146.965,108.784 153.465,113.117 162,114.5C 165.233,114.3 168.067,113.133 170.5,111C 174.41,106.621 178.41,102.454 182.5,98.5 Z"/></g>
<g><path style="opacity:1" fill="#434243" d="M 176.5,95.5 C 178.784,95.9752 180.784,96.9752 182.5,98.5C 178.41,102.454 174.41,106.621 170.5,111C 168.067,113.133 165.233,114.3 162,114.5C 153.465,113.117 146.965,108.784 142.5,101.5C 144.091,99.3674 146.091,97.7007 148.5,96.5C 151.835,107.003 158.501,110.17 168.5,106C 171.414,102.6 174.08,99.0996 176.5,95.5 Z"/></g>
<g><path style="opacity:1" fill="#4f4f4f" d="M 176.5,95.5 C 174.08,99.0996 171.414,102.6 168.5,106C 158.501,110.17 151.835,107.003 148.5,96.5C 157.737,91.5561 167.07,91.2228 176.5,95.5 Z"/></g>
<g><path style="opacity:1" fill="#212527" d="M 183.5,98.5 C 183.167,98.5 182.833,98.5 182.5,98.5C 180.784,96.9752 178.784,95.9752 176.5,95.5C 167.07,91.2228 157.737,91.5561 148.5,96.5C 146.091,97.7007 144.091,99.3674 142.5,101.5C 141.061,103.36 139.395,105.027 137.5,106.5C 138.619,103.112 140.619,100.279 143.5,98C 157.056,88.0876 170.389,88.2542 183.5,98.5 Z"/></g>
<g><path style="opacity:1" fill="#3f5961" d="M 154.5,88.5 C 159.179,88.3342 163.845,88.5008 168.5,89C 172.363,90.7322 176.363,92.0656 180.5,93C 183.107,95.0657 185.107,97.5657 186.5,100.5C 185.5,99.8333 184.5,99.1667 183.5,98.5C 170.389,88.2542 157.056,88.0876 143.5,98C 140.619,100.279 138.619,103.112 137.5,106.5C 136.833,106.833 136.167,107.167 135.5,107.5C 136.388,104.757 137.555,102.09 139,99.5C 143.536,94.775 148.702,91.1083 154.5,88.5 Z"/></g>
<g><path style="opacity:0.012" fill="#a4a5a4" d="M 246.5,126.5 C 246.833,126.5 247.167,126.5 247.5,126.5C 247.167,129.167 246.833,129.167 246.5,126.5 Z"/></g>
<g><path style="opacity:1" fill="#73a0ad" d="M 197.5,91.5 C 197.5,92.1667 197.833,92.5 198.5,92.5C 200.226,94.2279 201.559,96.2279 202.5,98.5C 201.861,99.0968 201.528,99.9302 201.5,101C 205.515,113.789 205.348,126.622 201,139.5C 198.04,141.408 196.04,144.075 195,147.5C 183.501,158.884 169.668,163.051 153.5,160C 150.975,159.576 148.975,158.41 147.5,156.5C 156.76,158.231 166.093,158.731 175.5,158C 195.826,149.193 204.66,133.693 202,111.5C 200.445,105.012 198.612,98.6782 196.5,92.5C 196.624,91.8933 196.957,91.56 197.5,91.5 Z"/></g>
<g><path style="opacity:0.004" fill="#a8a8a7" d="M 245.5,129.5 C 246.833,130.167 246.833,130.833 245.5,131.5C 245.5,130.833 245.5,130.167 245.5,129.5 Z"/></g>
<g><path style="opacity:0.008" fill="#a7a8a8" d="M 244.5,131.5 C 244.833,131.5 245.167,131.5 245.5,131.5C 245.167,134.167 244.833,134.167 244.5,131.5 Z"/></g>
<g><path style="opacity:0.012" fill="#a8aaa8" d="M 243.5,134.5 C 244.833,135.167 244.833,135.167 243.5,134.5 Z"/></g>
<g><path style="opacity:0.008" fill="#abacab" d="M 242.5,136.5 C 243.833,137.167 243.833,137.833 242.5,138.5C 242.5,137.833 242.5,137.167 242.5,136.5 Z"/></g>
<g><path style="opacity:0.008" fill="#acacab" d="M 241.5,138.5 C 241.833,138.5 242.167,138.5 242.5,138.5C 242.672,139.492 242.338,140.158 241.5,140.5C 241.5,139.833 241.5,139.167 241.5,138.5 Z"/></g>
<g><path style="opacity:1" fill="#7c8081" d="M 208.5,114.5 C 209.167,115.167 209.833,115.833 210.5,116.5C 210.5,117.833 210.5,119.167 210.5,120.5C 212.287,130.054 211.787,139.387 209,148.5C 202.205,154.818 194.372,159.485 185.5,162.5C 184.817,162.137 184.15,161.804 183.5,161.5C 201.69,151.255 210.024,135.589 208.5,114.5 Z"/></g>
<g><path style="opacity:1" fill="#92c4d2" d="M 86.5,134.5 C 85.0536,133.387 83.3869,133.22 81.5,134C 65.8108,141.846 51.4774,151.679 38.5,163.5C 37.3861,162.277 37.2195,160.944 38,159.5C 39.2915,157.751 40.4582,155.918 41.5,154C 38.705,154.412 36.0384,155.412 33.5,157C 29.4628,160.958 25.7962,165.124 22.5,169.5C 22.5,168.833 22.5,168.167 22.5,167.5C 36.566,148.81 54.8993,135.81 77.5,128.5C 80.6939,127.242 84.0272,126.576 87.5,126.5C 87.8064,129.385 87.4731,132.052 86.5,134.5 Z"/></g>
<g><path style="opacity:0.004" fill="#aeaead" d="M 240.5,140.5 C 240.833,140.5 241.167,140.5 241.5,140.5C 241.672,141.492 241.338,142.158 240.5,142.5C 240.5,141.833 240.5,141.167 240.5,140.5 Z"/></g>
<g><path style="opacity:0.004" fill="#afafae" d="M 239.5,142.5 C 239.833,142.5 240.167,142.5 240.5,142.5C 240.672,143.492 240.338,144.158 239.5,144.5C 239.5,143.833 239.5,143.167 239.5,142.5 Z"/></g>
<g><path style="opacity:1" fill="#79a8b5" d="M 85.5,138.5 C 79.7396,155.875 75.0729,173.542 71.5,191.5C 71.1667,191.5 70.8333,191.5 70.5,191.5C 68.1909,187.876 67.0242,183.876 67,179.5C 66.8981,171.496 66.8981,163.496 67,155.5C 65.2739,154.424 63.4406,154.257 61.5,155C 43.6362,163.198 30.8028,176.365 23,194.5C 15.9386,213.684 9.27197,233.017 3,252.5C 2.66667,252.833 2.33333,253.167 2,253.5C 2.05334,250.325 1.22001,247.658 -0.5,245.5C -0.5,242.833 -0.5,240.167 -0.5,237.5C 0.794675,233.733 1.46134,229.733 1.5,225.5C 2.91301,222.781 3.57968,219.781 3.5,216.5C 4.16667,215.167 4.83333,213.833 5.5,212.5C 10.0505,199.183 15.3838,186.183 21.5,173.5C 22.8139,172.687 23.9805,171.687 25,170.5C 25.0822,174.896 24.7488,179.23 24,183.5C 25.3333,181.5 26.6667,179.5 28,177.5C 37.4969,169.003 46.6635,160.17 55.5,151C 62.8626,147.233 70.0293,143.066 77,138.5C 79.9831,137.268 82.8164,137.268 85.5,138.5 Z"/></g>
<g><path style="opacity:1" fill="#739da8" d="M 141.5,155.5 C 139.5,154.833 137.5,154.167 135.5,153.5C 134.833,153.5 134.167,153.5 133.5,153.5C 132.061,151.64 130.395,149.973 128.5,148.5C 124.722,141.603 122.056,134.27 120.5,126.5C 120.334,122.486 120.501,118.486 121,114.5C 123.69,130.548 130.524,144.215 141.5,155.5 Z"/></g>
<g><path style="opacity:0.004" fill="#afb0af" d="M 238.5,144.5 C 238.833,144.5 239.167,144.5 239.5,144.5C 239.672,145.492 239.338,146.158 238.5,146.5C 238.5,145.833 238.5,145.167 238.5,144.5 Z"/></g>
<g><path style="opacity:0.004" fill="#b2b2b1" d="M 237.5,146.5 C 237.833,146.5 238.167,146.5 238.5,146.5C 238.672,147.492 238.338,148.158 237.5,148.5C 237.5,147.833 237.5,147.167 237.5,146.5 Z"/></g>
<g><path style="opacity:0.012" fill="#afb1af" d="M 236.5,148.5 C 236.833,148.5 237.167,148.5 237.5,148.5C 237.315,149.17 236.981,149.17 236.5,148.5 Z"/></g>
<g><path style="opacity:0.012" fill="#b1b2b1" d="M 235.5,150.5 C 236.833,151.167 236.833,151.167 235.5,150.5 Z"/></g>
<g><path style="opacity:0.008" fill="#adaead" d="M 234.5,151.5 C 234.833,151.5 235.167,151.5 235.5,151.5C 235.672,152.492 235.338,153.158 234.5,153.5C 234.5,152.833 234.5,152.167 234.5,151.5 Z"/></g>
<g><path style="opacity:1" fill="#729eaa" d="M 70.5,191.5 C 70.7678,193.099 70.4345,194.432 69.5,195.5C 65.933,193.035 62.2663,190.535 58.5,188C 54.0864,185.357 49.5864,183.524 45,182.5C 44.6667,183.167 44.3333,183.833 44,184.5C 43.15,183.576 42.15,183.576 41,184.5C 35.2608,188.929 30.9275,194.596 28,201.5C 22.2696,217.682 15.9363,233.682 9,249.5C 7.33332,250.733 5.83332,252.067 4.5,253.5C 3.29208,254.234 1.95875,254.567 0.5,254.5C 0.166667,254.5 -0.166667,254.5 -0.5,254.5C -0.5,251.5 -0.5,248.5 -0.5,245.5C 1.22001,247.658 2.05334,250.325 2,253.5C 2.33333,253.167 2.66667,252.833 3,252.5C 9.27197,233.017 15.9386,213.684 23,194.5C 30.8028,176.365 43.6362,163.198 61.5,155C 63.4406,154.257 65.2739,154.424 67,155.5C 66.8981,163.496 66.8981,171.496 67,179.5C 67.0242,183.876 68.1909,187.876 70.5,191.5 Z"/></g>
<g><path style="opacity:1" fill="#95c6d4" d="M 176.5,149.5 C 178.482,149.995 180.482,150.495 182.5,151C 171.995,158.832 160.995,159.499 149.5,153C 152.254,152.728 154.921,152.228 157.5,151.5C 163.969,151.849 170.302,151.183 176.5,149.5 Z"/></g>
<g><path style="opacity:0.004" fill="#b3b3b2" d="M 233.5,153.5 C 233.833,153.5 234.167,153.5 234.5,153.5C 234.672,154.492 234.338,155.158 233.5,155.5C 233.5,154.833 233.5,154.167 233.5,153.5 Z"/></g>
<g><path style="opacity:0.008" fill="#97c5d1" d="M 29.5,155.5 C 30.8333,156.167 30.8333,156.167 29.5,155.5 Z"/></g>
<g><path style="opacity:1" fill="#eff0f0" d="M 128.5,148.5 C 130.395,149.973 132.061,151.64 133.5,153.5C 134.5,155.167 135.833,156.5 137.5,157.5C 138.39,159.782 138.556,162.115 138,164.5C 133.94,168.292 130.607,172.626 128,177.5C 124.5,181.667 121,185.833 117.5,190C 110.932,194.902 104.098,199.402 97,203.5C 96.586,203.043 96.086,202.709 95.5,202.5C 91.6106,203.35 88.1106,204.35 85,205.5C 79.0507,204.092 74.5507,200.426 71.5,194.5C 73.1401,193.68 74.8068,192.847 76.5,192C 79.2418,188.243 82.5751,185.076 86.5,182.5C 90.0574,182.231 93.2241,180.564 96,177.5C 96.414,177.957 96.914,178.291 97.5,178.5C 104.577,176.678 110.91,173.678 116.5,169.5C 116.281,168.325 116.614,167.325 117.5,166.5C 121.811,163.296 125.978,159.963 130,156.5C 129.84,153.841 129.34,151.174 128.5,148.5 Z"/></g>
<g><path style="opacity:0.016" fill="#b2b3b2" d="M 232.5,155.5 C 232.833,155.5 233.167,155.5 233.5,155.5C 233.315,156.17 232.981,156.17 232.5,155.5 Z"/></g>
<g><path style="opacity:0.004" fill="#98c6d1" d="M 29.5,156.5 C 28.8333,157.167 28.8333,157.167 29.5,156.5 Z"/></g>
<g><path style="opacity:0.999" fill="#a6a7a7" d="M 242.5,135.5 C 242.5,135.833 242.5,136.167 242.5,136.5C 241.662,136.842 241.328,137.508 241.5,138.5C 240.662,138.842 240.328,139.508 240.5,140.5C 239.662,140.842 239.328,141.508 239.5,142.5C 238.662,142.842 238.328,143.508 238.5,144.5C 237.662,144.842 237.328,145.508 237.5,146.5C 236.662,146.842 236.328,147.508 236.5,148.5C 235.662,148.842 235.328,149.508 235.5,150.5C 234.833,150.5 234.5,150.833 234.5,151.5C 234.167,151.5 233.833,151.5 233.5,151.5C 223.168,165.461 212.334,179.128 201,192.5C 200.505,194.473 200.338,196.473 200.5,198.5C 199.527,196.052 199.194,193.385 199.5,190.5C 200.293,187.581 201.626,184.915 203.5,182.5C 217.434,168.607 229.434,153.274 239.5,136.5C 240.325,135.614 241.325,135.281 242.5,135.5 Z"/></g>
<g><path style="opacity:0.012" fill="#b3b5b3" d="M 231.5,157.5 C 232.833,158.167 232.833,158.167 231.5,157.5 Z"/></g>
<g><path style="opacity:0.998" fill="#87b7c5" d="M 86.5,134.5 C 86.7678,136.099 86.4345,137.432 85.5,138.5C 82.8164,137.268 79.9831,137.268 77,138.5C 70.0293,143.066 62.8626,147.233 55.5,151C 46.6635,160.17 37.4969,169.003 28,177.5C 26.6667,179.5 25.3333,181.5 24,183.5C 24.7488,179.23 25.0822,174.896 25,170.5C 23.9805,171.687 22.8139,172.687 21.5,173.5C 15.3838,186.183 10.0505,199.183 5.5,212.5C 5.5,211.167 5.5,209.833 5.5,208.5C 6.92381,206.485 7.59047,204.152 7.5,201.5C 9.40532,197.784 10.7387,193.784 11.5,189.5C 12.9313,188.22 13.5979,186.553 13.5,184.5C 16.2484,179.334 19.2484,174.334 22.5,169.5C 25.7962,165.124 29.4628,160.958 33.5,157C 36.0384,155.412 38.705,154.412 41.5,154C 40.4582,155.918 39.2915,157.751 38,159.5C 37.2195,160.944 37.3861,162.277 38.5,163.5C 51.4774,151.679 65.8108,141.846 81.5,134C 83.3869,133.22 85.0536,133.387 86.5,134.5 Z"/></g>
<g><path style="opacity:1" fill="#898c8d" d="M 210.5,120.5 C 211.345,121.671 212.011,123.005 212.5,124.5C 212.5,126.167 212.5,127.833 212.5,129.5C 212.5,130.5 212.5,131.5 212.5,132.5C 212.666,140.84 212.5,149.173 212,157.5C 210.353,162.156 207.52,165.989 203.5,169C 192.897,173.519 181.897,174.685 170.5,172.5C 163.619,170.724 156.952,168.39 150.5,165.5C 148.716,165.107 147.05,164.441 145.5,163.5C 142.55,161.885 139.884,159.885 137.5,157.5C 135.833,156.5 134.5,155.167 133.5,153.5C 134.167,153.5 134.833,153.5 135.5,153.5C 142.886,160.857 151.886,164.524 162.5,164.5C 169.738,164.982 176.738,163.982 183.5,161.5C 184.15,161.804 184.817,162.137 185.5,162.5C 194.372,159.485 202.205,154.818 209,148.5C 211.787,139.387 212.287,130.054 210.5,120.5 Z"/></g>
<g><path style="opacity:0.008" fill="#b3b4b4" d="M 230.5,158.5 C 230.833,158.5 231.167,158.5 231.5,158.5C 231.672,159.492 231.338,160.158 230.5,160.5C 230.5,159.833 230.5,159.167 230.5,158.5 Z"/></g>
<g><path style="opacity:0.016" fill="#b3b4b3" d="M 229.5,160.5 C 229.833,160.5 230.167,160.5 230.5,160.5C 230.315,161.17 229.981,161.17 229.5,160.5 Z"/></g>
<g><path style="opacity:0.008" fill="#96c3ce" d="M 24.5,161.5 C 25.8333,162.167 25.8333,162.167 24.5,161.5 Z"/></g>
<g><path style="opacity:1" fill="#e9eaea" d="M 137.5,157.5 C 139.884,159.885 142.55,161.885 145.5,163.5C 146.218,165.137 146.384,166.803 146,168.5C 139.408,177.362 133.075,186.362 127,195.5C 119.511,203.652 111.345,211.152 102.5,218C 94.0589,220.925 86.3922,219.591 79.5,214C 76.2111,210.198 72.5445,207.031 68.5,204.5C 69.1495,202.565 69.4828,200.565 69.5,198.5C 69.5,197.5 69.5,196.5 69.5,195.5C 70.4345,194.432 70.7678,193.099 70.5,191.5C 70.8333,191.5 71.1667,191.5 71.5,191.5C 71.5,192.5 71.5,193.5 71.5,194.5C 74.5507,200.426 79.0507,204.092 85,205.5C 88.1106,204.35 91.6106,203.35 95.5,202.5C 96.086,202.709 96.586,203.043 97,203.5C 104.098,199.402 110.932,194.902 117.5,190C 121,185.833 124.5,181.667 128,177.5C 130.607,172.626 133.94,168.292 138,164.5C 138.556,162.115 138.39,159.782 137.5,157.5 Z"/></g>
<g><path style="opacity:1" fill="#5a7780" d="M 208.5,113.5 C 208.5,113.833 208.5,114.167 208.5,114.5C 210.024,135.589 201.69,151.255 183.5,161.5C 176.738,163.982 169.738,164.982 162.5,164.5C 191.925,160.08 207.259,143.08 208.5,113.5 Z"/></g>
<g><path style="opacity:0.012" fill="#b7b8b7" d="M 228.5,162.5 C 229.833,163.167 229.833,163.167 228.5,162.5 Z"/></g>
<g><path style="opacity:0.004" fill="#b7b7b7" d="M 227.5,163.5 C 227.833,163.5 228.167,163.5 228.5,163.5C 228.672,164.492 228.338,165.158 227.5,165.5C 227.5,164.833 227.5,164.167 227.5,163.5 Z"/></g>
<g><path style="opacity:1" fill="#e1e2e2" d="M 145.5,163.5 C 147.05,164.441 148.716,165.107 150.5,165.5C 151.29,166.794 152.29,167.961 153.5,169C 155.653,169.099 157.319,169.933 158.5,171.5C 159.218,173.137 159.384,174.803 159,176.5C 147.655,195.344 133.821,212.178 117.5,227C 105.825,234.279 94.4918,233.613 83.5,225C 76.2764,219.636 71.2764,212.803 68.5,204.5C 72.5445,207.031 76.2111,210.198 79.5,214C 86.3922,219.591 94.0589,220.925 102.5,218C 111.345,211.152 119.511,203.652 127,195.5C 133.075,186.362 139.408,177.362 146,168.5C 146.384,166.803 146.218,165.137 145.5,163.5 Z"/></g>
<g><path style="opacity:0.012" fill="#b7b9b7" d="M 226.5,165.5 C 226.833,165.5 227.167,165.5 227.5,165.5C 227.315,166.17 226.981,166.17 226.5,165.5 Z"/></g>
<g><path style="opacity:0.012" fill="#90bcc8" d="M 22.5,167.5 C 22.1667,167.5 21.8333,167.5 21.5,167.5C 21.8333,164.833 22.1667,164.833 22.5,167.5 Z"/></g>
<g><path style="opacity:0.012" fill="#92bfca" d="M 21.5,167.5 C 20.8333,168.167 20.8333,168.167 21.5,167.5 Z"/></g>
<g><path style="opacity:0.004" fill="#b7b8b8" d="M 225.5,166.5 C 225.833,166.5 226.167,166.5 226.5,166.5C 226.672,167.492 226.338,168.158 225.5,168.5C 225.5,167.833 225.5,167.167 225.5,166.5 Z"/></g>
<g><path style="opacity:0.012" fill="#b8bab8" d="M 224.5,168.5 C 224.833,168.5 225.167,168.5 225.5,168.5C 225.315,169.17 224.981,169.17 224.5,168.5 Z"/></g>
<g><path style="opacity:0.004" fill="#b7b8b7" d="M 223.5,169.5 C 223.833,169.5 224.167,169.5 224.5,169.5C 224.672,170.492 224.338,171.158 223.5,171.5C 223.5,170.833 223.5,170.167 223.5,169.5 Z"/></g>
<g><path style="opacity:0.861" fill="#b7b8b7" d="M 233.5,151.5 C 233.5,152.167 233.5,152.833 233.5,153.5C 232.662,153.842 232.328,154.508 232.5,155.5C 231.662,155.842 231.328,156.508 231.5,157.5C 230.833,157.5 230.5,157.833 230.5,158.5C 229.662,158.842 229.328,159.508 229.5,160.5C 228.094,160.973 227.427,161.973 227.5,163.5C 226.662,163.842 226.328,164.508 226.5,165.5C 225.833,165.5 225.5,165.833 225.5,166.5C 224.662,166.842 224.328,167.508 224.5,168.5C 223.833,168.5 223.5,168.833 223.5,169.5C 222.662,169.842 222.328,170.508 222.5,171.5C 221.833,171.5 221.5,171.833 221.5,172.5C 220.662,172.842 220.328,173.508 220.5,174.5C 219.833,174.5 219.5,174.833 219.5,175.5C 218.094,175.973 217.427,176.973 217.5,178.5C 216.833,178.5 216.5,178.833 216.5,179.5C 215.662,179.842 215.328,180.508 215.5,181.5C 214.833,181.5 214.5,181.833 214.5,182.5C 213.833,182.5 213.5,182.833 213.5,183.5C 212.662,183.842 212.328,184.508 212.5,185.5C 211.833,185.5 211.5,185.833 211.5,186.5C 210.833,186.5 210.5,186.833 210.5,187.5C 209.662,187.842 209.328,188.508 209.5,189.5C 208.833,189.5 208.5,189.833 208.5,190.5C 206.457,191.579 205.124,193.246 204.5,195.5C 203.833,195.5 203.5,195.833 203.5,196.5C 202.094,196.973 201.427,197.973 201.5,199.5C 200.833,199.5 200.5,199.167 200.5,198.5C 200.338,196.473 200.505,194.473 201,192.5C 212.334,179.128 223.168,165.461 233.5,151.5 Z"/></g>
<g><path style="opacity:0.012" fill="#b9bab9" d="M 222.5,171.5 C 222.833,171.5 223.167,171.5 223.5,171.5C 223.315,172.17 222.981,172.17 222.5,171.5 Z"/></g>
<g><path style="opacity:1" fill="#d5d6d7" d="M 158.5,171.5 C 159.5,171.5 160.5,171.5 161.5,171.5C 163.498,173.6 165.665,175.6 168,177.5C 168.798,179.259 168.631,180.926 167.5,182.5C 155.85,199.326 142.517,214.826 127.5,229C 119.288,236.569 109.621,239.402 98.5,237.5C 88.687,232.359 79.687,226.025 71.5,218.5C 70.5849,216.246 69.2516,214.246 67.5,212.5C 67.2367,208.4 67.5701,204.4 68.5,200.5C 68.3284,199.508 68.6618,198.842 69.5,198.5C 69.4828,200.565 69.1495,202.565 68.5,204.5C 71.2764,212.803 76.2764,219.636 83.5,225C 94.4918,233.613 105.825,234.279 117.5,227C 133.821,212.178 147.655,195.344 159,176.5C 159.384,174.803 159.218,173.137 158.5,171.5 Z"/></g>
<g><path style="opacity:0.004" fill="#babbba" d="M 221.5,172.5 C 221.833,172.5 222.167,172.5 222.5,172.5C 222.672,173.492 222.338,174.158 221.5,174.5C 221.5,173.833 221.5,173.167 221.5,172.5 Z"/></g>
<g><path style="opacity:0.012" fill="#bbbcbb" d="M 220.5,174.5 C 220.833,174.5 221.167,174.5 221.5,174.5C 221.315,175.17 220.981,175.17 220.5,174.5 Z"/></g>
<g><path style="opacity:0.012" fill="#b7b9b8" d="M 219.5,175.5 C 219.833,175.5 220.167,175.5 220.5,175.5C 220.315,176.17 219.981,176.17 219.5,175.5 Z"/></g>
<g><path style="opacity:0.008" fill="#bbbdbc" d="M 218.5,177.5 C 219.833,178.167 219.833,178.167 218.5,177.5 Z"/></g>
<g><path style="opacity:0.016" fill="#babcbb" d="M 217.5,178.5 C 217.833,178.5 218.167,178.5 218.5,178.5C 218.315,179.17 217.981,179.17 217.5,178.5 Z"/></g>
<g><path style="opacity:0.004" fill="#bbbbbb" d="M 216.5,179.5 C 216.833,179.5 217.167,179.5 217.5,179.5C 217.672,180.492 217.338,181.158 216.5,181.5C 216.5,180.833 216.5,180.167 216.5,179.5 Z"/></g>
<g><path style="opacity:0.012" fill="#bdbebd" d="M 215.5,181.5 C 215.833,181.5 216.167,181.5 216.5,181.5C 216.315,182.17 215.981,182.17 215.5,181.5 Z"/></g>
<g><path style="opacity:1" fill="#6e97a2" d="M 69.5,195.5 C 69.5,196.5 69.5,197.5 69.5,198.5C 68.6618,198.842 68.3284,199.508 68.5,200.5C 66.901,200.232 65.5676,200.566 64.5,201.5C 62.1944,201.993 59.861,202.326 57.5,202.5C 60.3615,201.478 63.0281,199.978 65.5,198C 56.7552,195.793 48.7552,197.46 41.5,203C 29.8191,214.535 21.3191,228.035 16,243.5C 13.0591,246.532 10.2257,249.698 7.5,253C 6.55198,253.483 5.55198,253.649 4.5,253.5C 5.83332,252.067 7.33332,250.733 9,249.5C 15.9363,233.682 22.2696,217.682 28,201.5C 30.9275,194.596 35.2608,188.929 41,184.5C 42.15,183.576 43.15,183.576 44,184.5C 44.3333,183.833 44.6667,183.167 45,182.5C 49.5864,183.524 54.0864,185.357 58.5,188C 62.2663,190.535 65.933,193.035 69.5,195.5 Z"/></g>
<g><path style="opacity:0.012" fill="#b9bbba" d="M 214.5,182.5 C 214.833,182.5 215.167,182.5 215.5,182.5C 215.315,183.17 214.981,183.17 214.5,182.5 Z"/></g>
<g><path style="opacity:0.012" fill="#8db7c2" d="M 13.5,184.5 C 12.475,184.103 12.3083,183.437 13,182.5C 13.4643,183.094 13.631,183.761 13.5,184.5 Z"/></g>
<g><path style="opacity:0.008" fill="#b9bbbb" d="M 213.5,183.5 C 213.833,183.5 214.167,183.5 214.5,183.5C 214.672,184.492 214.338,185.158 213.5,185.5C 213.5,184.833 213.5,184.167 213.5,183.5 Z"/></g>
<g><path style="opacity:0.012" fill="#bcbfbd" d="M 212.5,185.5 C 212.833,185.5 213.167,185.5 213.5,185.5C 213.315,186.17 212.981,186.17 212.5,185.5 Z"/></g>
<g><path style="opacity:0.016" fill="#bdbebd" d="M 211.5,186.5 C 211.833,186.5 212.167,186.5 212.5,186.5C 212.315,187.17 211.981,187.17 211.5,186.5 Z"/></g>
<g><path style="opacity:0.012" fill="#8bb5c0" d="M 11.5,189.5 C 10.475,189.103 10.3083,188.437 11,187.5C 11.4643,188.094 11.631,188.761 11.5,189.5 Z"/></g>
<g><path style="opacity:0.008" fill="#babbbc" d="M 210.5,187.5 C 210.833,187.5 211.167,187.5 211.5,187.5C 211.672,188.492 211.338,189.158 210.5,189.5C 210.5,188.833 210.5,188.167 210.5,187.5 Z"/></g>
<g><path style="opacity:0.012" fill="#bec0bf" d="M 209.5,189.5 C 209.833,189.5 210.167,189.5 210.5,189.5C 210.315,190.17 209.981,190.17 209.5,189.5 Z"/></g>
<g><path style="opacity:0.016" fill="#bcbebd" d="M 208.5,190.5 C 208.833,190.5 209.167,190.5 209.5,190.5C 209.315,191.17 208.981,191.17 208.5,190.5 Z"/></g>
<g><path style="opacity:0.016" fill="#bcbfbe" d="M 204.5,195.5 C 205.833,196.167 205.833,196.167 204.5,195.5 Z"/></g>
<g><path style="opacity:1" fill="#c6c9ca" d="M 161.5,171.5 C 168.897,172.324 173.564,176.157 175.5,183C 174.782,186.19 173.449,189.023 171.5,191.5C 165.114,198.577 158.947,205.91 153,213.5C 143.966,222.258 134.466,230.425 124.5,238C 118.94,239.973 113.273,241.473 107.5,242.5C 104.008,241.59 101.008,239.924 98.5,237.5C 109.621,239.402 119.288,236.569 127.5,229C 142.517,214.826 155.85,199.326 167.5,182.5C 168.631,180.926 168.798,179.259 168,177.5C 165.665,175.6 163.498,173.6 161.5,171.5 Z"/></g>
<g><path style="opacity:0.004" fill="#bfc1c0" d="M 203.5,196.5 C 203.833,196.5 204.167,196.5 204.5,196.5C 204.672,197.492 204.338,198.158 203.5,198.5C 203.5,197.833 203.5,197.167 203.5,196.5 Z"/></g>
<g><path style="opacity:0.008" fill="#b3b8b8" d="M 203.5,198.5 C 202.833,199.167 202.833,199.167 203.5,198.5 Z"/></g>
<g><path style="opacity:0.012" fill="#88b2bd" d="M 7.5,201.5 C 6.42654,200.749 6.25988,199.749 7,198.5C 7.48278,199.448 7.64945,200.448 7.5,201.5 Z"/></g>
<g><path style="opacity:0.01" fill="#6a868e" d="M 202.5,200.5 C 203.613,201.946 203.78,203.613 203,205.5C 202.506,203.866 202.34,202.199 202.5,200.5 Z"/></g>
<g><path style="opacity:0.907" fill="#969fa2" d="M 68.5,200.5 C 67.5701,204.4 67.2367,208.4 67.5,212.5C 67.1667,212.5 66.8333,212.5 66.5,212.5C 66.6716,211.508 66.3382,210.842 65.5,210.5C 64.8413,207.545 64.5079,204.545 64.5,201.5C 65.5676,200.566 66.901,200.232 68.5,200.5 Z"/></g>
<g><path style="opacity:0.008" fill="#64909d" d="M 57.5,204.5 C 57.5,204.167 57.5,203.833 57.5,203.5C 62.8333,203.833 62.8333,204.167 57.5,204.5 Z"/></g>
<g><path style="opacity:0.012" fill="#638f9b" d="M 54.5,205.5 C 54.5,205.167 54.5,204.833 54.5,204.5C 55.5,204.5 56.5,204.5 57.5,204.5C 56.791,205.404 55.791,205.737 54.5,205.5 Z"/></g>
<g><path style="opacity:0.01" fill="#939c9f" d="M 62.5,202.5 C 63.6129,203.946 63.7796,205.613 63,207.5C 62.5065,205.866 62.3398,204.199 62.5,202.5 Z"/></g>
<g><path style="opacity:0.004" fill="#63909c" d="M 54.5,205.5 C 54.1034,206.525 53.4368,206.692 52.5,206C 53.0944,205.536 53.7611,205.369 54.5,205.5 Z"/></g>
<g><path style="opacity:0.012" fill="#87b0bb" d="M 5.5,208.5 C 4.42654,207.749 4.25988,206.749 5,205.5C 5.48278,206.448 5.64945,207.448 5.5,208.5 Z"/></g>
<g><path style="opacity:0.012" fill="#608b98" d="M 49.5,207.5 C 49.5,207.167 49.5,206.833 49.5,206.5C 52.1667,206.833 52.1667,207.167 49.5,207.5 Z"/></g>
<g><path style="opacity:0.012" fill="#638f9b" d="M 49.5,207.5 C 48.8333,208.167 48.8333,208.167 49.5,207.5 Z"/></g>
<g><path style="opacity:1" fill="#658b97" d="M 57.5,202.5 C 57.5,202.833 57.5,203.167 57.5,203.5C 56.209,203.263 55.209,203.596 54.5,204.5C 52.4471,204.402 50.7804,205.069 49.5,206.5C 47.9731,206.427 46.9731,207.094 46.5,208.5C 45.5084,208.328 44.8417,208.662 44.5,209.5C 43.8333,209.5 43.5,209.833 43.5,210.5C 42.8333,210.5 42.5,210.833 42.5,211.5C 41.8333,211.5 41.5,211.833 41.5,212.5C 40.8333,212.5 40.5,212.833 40.5,213.5C 39.8333,213.5 39.5,213.833 39.5,214.5C 38.8333,214.5 38.5,214.833 38.5,215.5C 37.8333,215.5 37.5,215.833 37.5,216.5C 36.8333,216.5 36.5,216.833 36.5,217.5C 35.0937,217.973 34.427,218.973 34.5,220.5C 32.1,222.296 30.4333,224.63 29.5,227.5C 28.6618,227.842 28.3284,228.508 28.5,229.5C 27.8333,229.5 27.5,229.833 27.5,230.5C 26.6618,230.842 26.3284,231.508 26.5,232.5C 25.8333,232.5 25.5,232.833 25.5,233.5C 24.6618,233.842 24.3284,234.508 24.5,235.5C 23.6618,235.842 23.3284,236.508 23.5,237.5C 22.8333,237.5 22.5,237.833 22.5,238.5C 21.6618,238.842 21.3284,239.508 21.5,240.5C 20.0937,240.973 19.427,241.973 19.5,243.5C 18.6618,243.842 18.3284,244.508 18.5,245.5C 17.8333,245.5 17.5,245.833 17.5,246.5C 16.6618,246.842 16.3284,247.508 16.5,248.5C 15.8333,248.5 15.5,248.833 15.5,249.5C 14.8333,249.5 14.5,249.833 14.5,250.5C 13.6618,250.842 13.3284,251.508 13.5,252.5C 12.8333,252.5 12.5,252.833 12.5,253.5C 11.8333,253.5 11.5,253.833 11.5,254.5C 10.8333,254.5 10.5,254.833 10.5,255.5C 9.50838,255.328 8.84171,255.662 8.5,256.5C 6.16667,256.5 3.83333,256.5 1.5,256.5C 1.16667,255.833 0.833333,255.167 0.5,254.5C 1.95875,254.567 3.29208,254.234 4.5,253.5C 5.55198,253.649 6.55198,253.483 7.5,253C 10.2257,249.698 13.0591,246.532 16,243.5C 21.3191,228.035 29.8191,214.535 41.5,203C 48.7552,197.46 56.7552,195.793 65.5,198C 63.0281,199.978 60.3615,201.478 57.5,202.5 Z"/></g>
<g><path style="opacity:0.016" fill="#618d99" d="M 46.5,208.5 C 47.8333,209.167 47.8333,209.167 46.5,208.5 Z"/></g>
<g><path style="opacity:0.008" fill="#5f8896" d="M 44.5,210.5 C 44.5,210.167 44.5,209.833 44.5,209.5C 45.1667,209.5 45.8333,209.5 46.5,209.5C 46.1583,210.338 45.4916,210.672 44.5,210.5 Z"/></g>
<g><path style="opacity:0.008" fill="#97a0a2" d="M 64.5,210.5 C 63.475,210.103 63.3083,209.437 64,208.5C 64.4643,209.094 64.631,209.761 64.5,210.5 Z"/></g>
<g><path style="opacity:0.016" fill="#608c98" d="M 43.5,210.5 C 43.8333,210.5 44.1667,210.5 44.5,210.5C 44.3147,211.17 43.9813,211.17 43.5,210.5 Z"/></g>
<g><path style="opacity:0.016" fill="#618d99" d="M 42.5,211.5 C 42.8333,211.5 43.1667,211.5 43.5,211.5C 43.3147,212.17 42.9813,212.17 42.5,211.5 Z"/></g>
<g><path style="opacity:0.016" fill="#b6bec1" d="M 64.5,210.5 C 64.8333,210.5 65.1667,210.5 65.5,210.5C 65.1667,213.167 64.8333,213.167 64.5,210.5 Z"/></g>
<g><path style="opacity:0.016" fill="#618c99" d="M 41.5,212.5 C 41.8333,212.5 42.1667,212.5 42.5,212.5C 42.3147,213.17 41.9813,213.17 41.5,212.5 Z"/></g>
<g><path style="opacity:0.008" fill="#66848c" d="M 203.5,207.5 C 204.634,209.966 204.801,212.633 204,215.5C 203.503,212.854 203.336,210.187 203.5,207.5 Z"/></g>
<g><path style="opacity:0.012" fill="#618d99" d="M 40.5,213.5 C 40.8333,213.5 41.1667,213.5 41.5,213.5C 41.3147,214.17 40.9813,214.17 40.5,213.5 Z"/></g>
<g><path style="opacity:0.012" fill="#83adb8" d="M 3.5,216.5 C 2.40168,215.399 2.23502,214.066 3,212.5C 3.49001,213.793 3.65668,215.127 3.5,216.5 Z"/></g>
<g><path style="opacity:0.012" fill="#618d99" d="M 39.5,214.5 C 39.8333,214.5 40.1667,214.5 40.5,214.5C 40.3147,215.17 39.9813,215.17 39.5,214.5 Z"/></g>
<g><path style="opacity:0.016" fill="#608c98" d="M 38.5,215.5 C 38.8333,215.5 39.1667,215.5 39.5,215.5C 39.3147,216.17 38.9813,216.17 38.5,215.5 Z"/></g>
<g><path style="opacity:0.016" fill="#5f8a97" d="M 37.5,216.5 C 37.8333,216.5 38.1667,216.5 38.5,216.5C 38.3147,217.17 37.9813,217.17 37.5,216.5 Z"/></g>
<g><path style="opacity:0.012" fill="#5e8995" d="M 36.5,217.5 C 36.8333,217.5 37.1667,217.5 37.5,217.5C 37.3147,218.17 36.9813,218.17 36.5,217.5 Z"/></g>
<g><path style="opacity:0.014" fill="#82acb7" d="M 1.5,217.5 C 2.57346,218.251 2.74012,219.251 2,220.5C 1.51722,219.552 1.35055,218.552 1.5,217.5 Z"/></g>
<g><path style="opacity:0.008" fill="#618d99" d="M 35.5,219.5 C 36.8333,220.167 36.8333,220.167 35.5,219.5 Z"/></g>
<g><path style="opacity:0.847" fill="#6c838b" d="M 66.5,212.5 C 66.8333,212.5 67.1667,212.5 67.5,212.5C 69.2516,214.246 70.5849,216.246 71.5,218.5C 70.8333,218.167 70.1667,217.833 69.5,217.5C 69.1034,216.475 68.4368,216.308 67.5,217C 64.8603,219.783 62.8603,222.95 61.5,226.5C 55.2662,230.228 49.7662,234.895 45,240.5C 44.8253,243.157 44.9919,245.824 45.5,248.5C 44.8333,247.5 44.1667,246.5 43.5,245.5C 43.1604,241.869 43.9937,238.536 46,235.5C 50.635,231.019 55.635,227.019 61,223.5C 62.3194,219.528 64.1528,215.861 66.5,212.5 Z"/></g>
<g><path style="opacity:1" fill="#85b9c8" d="M 69.5,217.5 C 70.1667,217.833 70.8333,218.167 71.5,218.5C 72.5434,221.056 74.2101,223.223 76.5,225C 84.0454,230.719 91.7121,236.219 99.5,241.5C 99.4142,242.496 99.7476,243.329 100.5,244C 98.6055,245.775 96.9389,247.775 95.5,250C 93.5753,249.865 91.5753,249.698 89.5,249.5C 87.9505,248.559 86.2838,247.893 84.5,247.5C 80.9219,245.925 77.5886,243.925 74.5,241.5C 71.9786,239.299 69.4786,236.966 67,234.5C 65.9055,232.922 65.0722,231.255 64.5,229.5C 64.4606,228.417 64.1272,227.417 63.5,226.5C 65.5894,223.439 67.5894,220.439 69.5,217.5 Z"/></g>
<g><path style="opacity:0.016" fill="#608b98" d="M 34.5,220.5 C 34.8333,220.5 35.1667,220.5 35.5,220.5C 35.3147,221.17 34.9813,221.17 34.5,220.5 Z"/></g>
<g><path style="opacity:0.008" fill="#80abb6" d="M 1.5,225.5 C 0.401682,224.399 0.235015,223.066 1,221.5C 1.49001,222.793 1.65668,224.127 1.5,225.5 Z"/></g>
<g><path style="opacity:1" fill="#a1b2b7" d="M 184.5,192.5 C 184.461,193.756 184.961,194.756 186,195.5C 188.034,194.138 190.201,193.138 192.5,192.5C 192.5,192.833 192.5,193.167 192.5,193.5C 191.833,193.5 191.5,193.833 191.5,194.5C 179.738,206.984 167.738,219.317 155.5,231.5C 150.869,234.464 146.869,238.131 143.5,242.5C 143.105,238.888 144.272,235.554 147,232.5C 158.472,220.207 169.472,207.541 180,194.5C 180.333,195.167 180.667,195.833 181,196.5C 181.66,194.676 182.827,193.343 184.5,192.5 Z"/></g>
<g><path style="opacity:0.012" fill="#6a7f86" d="M 204.5,217.5 C 205.654,223.987 205.821,230.654 205,237.5C 204.5,230.842 204.334,224.175 204.5,217.5 Z"/></g>
<g><path style="opacity:0.012" fill="#628b97" d="M 30.5,226.5 C 31.8333,227.167 31.8333,227.167 30.5,226.5 Z"/></g>
<g><path style="opacity:0.01" fill="#7ea9b4" d="M -0.5,226.5 C 0.833333,227.833 0.833333,229.167 -0.5,230.5C -0.5,229.167 -0.5,227.833 -0.5,226.5 Z"/></g>
<g><path style="opacity:0.012" fill="#608793" d="M 29.5,227.5 C 29.8333,227.5 30.1667,227.5 30.5,227.5C 30.3147,228.17 29.9813,228.17 29.5,227.5 Z"/></g>
<g><path style="opacity:0.012" fill="#648a97" d="M 28.5,229.5 C 29.8333,230.167 29.8333,230.167 28.5,229.5 Z"/></g>
<g><path style="opacity:1" fill="#b2babc" d="M 150.5,165.5 C 156.952,168.39 163.619,170.724 170.5,172.5C 174.429,173.87 178.429,175.37 182.5,177C 189.761,181.123 190.427,186.29 184.5,192.5C 182.827,193.343 181.66,194.676 181,196.5C 180.667,195.833 180.333,195.167 180,194.5C 169.472,207.541 158.472,220.207 147,232.5C 144.272,235.554 143.105,238.888 143.5,242.5C 143.5,243.5 143.5,244.5 143.5,245.5C 138.933,245.256 134.599,244.09 130.5,242C 138.673,232.827 147.507,224.327 157,216.5C 161.117,207.742 165.951,199.408 171.5,191.5C 173.449,189.023 174.782,186.19 175.5,183C 173.564,176.157 168.897,172.324 161.5,171.5C 160.5,171.5 159.5,171.5 158.5,171.5C 157.319,169.933 155.653,169.099 153.5,169C 152.29,167.961 151.29,166.794 150.5,165.5 Z"/></g>
<g><path style="opacity:0.004" fill="#658a98" d="M 27.5,230.5 C 27.8333,230.5 28.1667,230.5 28.5,230.5C 28.6716,231.492 28.3382,232.158 27.5,232.5C 27.5,231.833 27.5,231.167 27.5,230.5 Z"/></g>
<g><path style="opacity:0.012" fill="#678a97" d="M 26.5,232.5 C 26.8333,232.5 27.1667,232.5 27.5,232.5C 27.3147,233.17 26.9813,233.17 26.5,232.5 Z"/></g>
<g><path style="opacity:1" fill="#719eab" d="M 192.5,193.5 C 192.5,193.167 192.5,192.833 192.5,192.5C 192.833,192.5 193.167,192.5 193.5,192.5C 196.168,193.457 197.668,195.457 198,198.5C 199.026,213.075 198.526,227.575 196.5,242C 195.197,245.815 193.531,249.315 191.5,252.5C 195.749,235.086 197.249,217.42 196,199.5C 195.647,196.848 194.48,194.848 192.5,193.5 Z"/></g>
<g><path style="opacity:0.008" fill="#61838f" d="M 25.5,233.5 C 25.8333,233.5 26.1667,233.5 26.5,233.5C 26.6716,234.492 26.3382,235.158 25.5,235.5C 25.5,234.833 25.5,234.167 25.5,233.5 Z"/></g>
<g><path style="opacity:1" fill="#92c8d7" d="M 64.5,229.5 C 65.0722,231.255 65.9055,232.922 67,234.5C 69.4786,236.966 71.9786,239.299 74.5,241.5C 71.8875,244.29 69.3875,247.29 67,250.5C 65.37,258.438 68.5367,261.605 76.5,260C 80.9036,256.865 83.5703,253.031 84.5,248.5C 86.3325,249.248 87.9991,250.248 89.5,251.5C 88.9182,257.142 86.2515,261.975 81.5,266C 77.2449,267.497 72.9115,267.497 68.5,266C 59.3812,259.726 52.7146,251.559 48.5,241.5C 52.4445,235.544 57.7778,231.544 64.5,229.5 Z"/></g>
<g><path style="opacity:0.008" fill="#6f8287" d="M 43.5,235.5 C 44.8333,236.167 44.8333,236.167 43.5,235.5 Z"/></g>
<g><path style="opacity:0.004" fill="#6c8d9b" d="M 24.5,235.5 C 24.8333,235.5 25.1667,235.5 25.5,235.5C 25.6716,236.492 25.3382,237.158 24.5,237.5C 24.5,236.833 24.5,236.167 24.5,235.5 Z"/></g>
<g><path style="opacity:1" fill="#8abfcd" d="M 191.5,194.5 C 192.931,194.881 193.764,195.881 194,197.5C 194.988,211.902 194.488,226.236 192.5,240.5C 190.312,244.23 188.812,248.23 188,252.5C 184.308,257.534 181.475,263.034 179.5,269C 172.83,275.489 167.497,282.989 163.5,291.5C 159.539,294.746 156.539,298.746 154.5,303.5C 148.84,309.494 143.173,315.494 137.5,321.5C 136.167,322.5 134.833,323.5 133.5,324.5C 129.43,325.492 127.43,323.992 127.5,320C 132.254,309.66 137.42,299.493 143,289.5C 149.674,275.351 151.174,260.685 147.5,245.5C 148.865,240.051 151.532,235.385 155.5,231.5C 167.738,219.317 179.738,206.984 191.5,194.5 Z"/></g>
<g><path style="opacity:0.012" fill="#6c8d99" d="M 23.5,237.5 C 23.8333,237.5 24.1667,237.5 24.5,237.5C 24.3147,238.17 23.9813,238.17 23.5,237.5 Z"/></g>
<g><path style="opacity:0.012" fill="#6b7f85" d="M 42.5,237.5 C 43.8333,238.167 43.8333,238.167 42.5,237.5 Z"/></g>
<g><path style="opacity:1" fill="#bac1c3" d="M 171.5,191.5 C 165.951,199.408 161.117,207.742 157,216.5C 147.507,224.327 138.673,232.827 130.5,242C 134.599,244.09 138.933,245.256 143.5,245.5C 144.338,245.842 144.672,246.508 144.5,247.5C 143.29,247.932 142.29,248.599 141.5,249.5C 138.873,250.092 136.206,250.425 133.5,250.5C 132.5,250.5 131.5,250.5 130.5,250.5C 122.271,249.207 114.604,246.541 107.5,242.5C 113.273,241.473 118.94,239.973 124.5,238C 134.466,230.425 143.966,222.258 153,213.5C 158.947,205.91 165.114,198.577 171.5,191.5 Z"/></g>
<g><path style="opacity:0.008" fill="#6b8b98" d="M 22.5,238.5 C 22.8333,238.5 23.1667,238.5 23.5,238.5C 23.6716,239.492 23.3382,240.158 22.5,240.5C 22.5,239.833 22.5,239.167 22.5,238.5 Z"/></g>
<g><path style="opacity:0.016" fill="#6b8b97" d="M 21.5,240.5 C 21.8333,240.5 22.1667,240.5 22.5,240.5C 22.3147,241.17 21.9813,241.17 21.5,240.5 Z"/></g>
<g><path style="opacity:0.996" fill="#7da8b4" d="M 69.5,217.5 C 67.5894,220.439 65.5894,223.439 63.5,226.5C 64.1272,227.417 64.4606,228.417 64.5,229.5C 57.7778,231.544 52.4445,235.544 48.5,241.5C 47.1201,241.962 46.4534,242.962 46.5,244.5C 48.6016,247.705 50.4349,251.038 52,254.5C 55.4755,257.303 58.9755,260.137 62.5,263C 64.0764,264.73 65.4097,266.563 66.5,268.5C 65.1667,267.833 63.8333,267.167 62.5,266.5C 62.1583,265.662 61.4916,265.328 60.5,265.5C 55.8333,261.5 51.5,257.167 47.5,252.5C 47.0679,251.29 46.4013,250.29 45.5,249.5C 45.5,249.167 45.5,248.833 45.5,248.5C 44.9919,245.824 44.8253,243.157 45,240.5C 49.7662,234.895 55.2662,230.228 61.5,226.5C 62.8603,222.95 64.8603,219.783 67.5,217C 68.4368,216.308 69.1034,216.475 69.5,217.5 Z"/></g>
<g><path style="opacity:0.012" fill="#657c83" d="M 203.5,238.5 C 204.622,240.288 204.789,242.288 204,244.5C 203.505,242.527 203.338,240.527 203.5,238.5 Z"/></g>
<g><path style="opacity:0.008" fill="#70909c" d="M 20.5,242.5 C 21.8333,243.167 21.8333,243.167 20.5,242.5 Z"/></g>
<g><path style="opacity:0.012" fill="#698992" d="M 42.5,245.5 C 41.3775,243.712 41.2109,241.712 42,239.5C 42.4955,241.473 42.6621,243.473 42.5,245.5 Z"/></g>
<g><path style="opacity:0.016" fill="#6c8b97" d="M 19.5,243.5 C 19.8333,243.5 20.1667,243.5 20.5,243.5C 20.3147,244.17 19.9813,244.17 19.5,243.5 Z"/></g>
<g><path style="opacity:1" fill="#79a9b6" d="M 99.5,241.5 C 104.565,244.453 109.399,247.787 114,251.5C 115.582,253.624 115.749,255.79 114.5,258C 111.5,258.667 108.5,258.667 105.5,258C 99.9466,255.392 94.6132,252.559 89.5,249.5C 91.5753,249.698 93.5753,249.865 95.5,250C 96.9389,247.775 98.6055,245.775 100.5,244C 99.7476,243.329 99.4142,242.496 99.5,241.5 Z"/></g>
<g><path style="opacity:0.012" fill="#708e9b" d="M 18.5,245.5 C 19.8333,246.167 19.8333,246.167 18.5,245.5 Z"/></g>
<g><path style="opacity:0.012" fill="#6c8996" d="M 17.5,246.5 C 17.8333,246.5 18.1667,246.5 18.5,246.5C 18.3147,247.17 17.9813,247.17 17.5,246.5 Z"/></g>
<g><path style="opacity:0.012" fill="#7aa9b6" d="M 42.5,245.5 C 42.8333,245.5 43.1667,245.5 43.5,245.5C 43.1667,248.167 42.8333,248.167 42.5,245.5 Z"/></g>
<g><path style="opacity:0.008" fill="#718e9b" d="M 16.5,248.5 C 17.8333,249.167 17.8333,249.167 16.5,248.5 Z"/></g>
<g><path style="opacity:1" fill="#a0d2e0" d="M 74.5,241.5 C 77.5886,243.925 80.9219,245.925 84.5,247.5C 84.5,247.833 84.5,248.167 84.5,248.5C 83.5703,253.031 80.9036,256.865 76.5,260C 68.5367,261.605 65.37,258.438 67,250.5C 69.3875,247.29 71.8875,244.29 74.5,241.5 Z"/></g>
<g><path style="opacity:0.004" fill="#6c8289" d="M 202.5,245.5 C 203.598,246.601 203.765,247.934 203,249.5C 202.51,248.207 202.343,246.873 202.5,245.5 Z"/></g>
<g><path style="opacity:0.016" fill="#6e8c98" d="M 15.5,249.5 C 15.8333,249.5 16.1667,249.5 16.5,249.5C 16.3147,250.17 15.9813,250.17 15.5,249.5 Z"/></g>
<g><path style="opacity:0.008" fill="#bbc5c8" d="M 141.5,250.5 C 141.5,250.167 141.5,249.833 141.5,249.5C 142.492,249.328 143.158,249.662 143.5,250.5C 142.833,250.5 142.167,250.5 141.5,250.5 Z"/></g>
<g><path style="opacity:0.008" fill="#7aadbb" d="M 45.5,249.5 C 45.631,250.239 45.4643,250.906 45,251.5C 44.3083,250.563 44.475,249.897 45.5,249.5 Z"/></g>
<g><path style="opacity:0.008" fill="#c5cacb" d="M 141.5,250.5 C 141.103,251.525 140.437,251.692 139.5,251C 140.094,250.536 140.761,250.369 141.5,250.5 Z"/></g>
<g><path style="opacity:0.012" fill="#74a4b2" d="M 143.5,250.5 C 144.525,250.897 144.692,251.563 144,252.5C 143.536,251.906 143.369,251.239 143.5,250.5 Z"/></g>
<g><path style="opacity:0.004" fill="#6e8c99" d="M 14.5,250.5 C 14.8333,250.5 15.1667,250.5 15.5,250.5C 15.6716,251.492 15.3382,252.158 14.5,252.5C 14.5,251.833 14.5,251.167 14.5,250.5 Z"/></g>
<g><path style="opacity:0.012" fill="#bcc4c7" d="M 134.5,252.5 C 135.601,251.402 136.934,251.235 138.5,252C 137.207,252.49 135.873,252.657 134.5,252.5 Z"/></g>
<g><path style="opacity:0.008" fill="#6f868c" d="M 201.5,250.5 C 202.525,250.897 202.692,251.563 202,252.5C 201.536,251.906 201.369,251.239 201.5,250.5 Z"/></g>
<g><path style="opacity:0.008" fill="#718f9c" d="M 13.5,252.5 C 13.8333,252.5 14.1667,252.5 14.5,252.5C 14.3147,253.17 13.9813,253.17 13.5,252.5 Z"/></g>
<g><path style="opacity:0.012" fill="#718f9c" d="M 12.5,253.5 C 12.8333,253.5 13.1667,253.5 13.5,253.5C 13.3147,254.17 12.9813,254.17 12.5,253.5 Z"/></g>
<g><path style="opacity:0.004" fill="#73a0ac" d="M 47.5,252.5 C 47.631,253.239 47.4643,253.906 47,254.5C 46.3083,253.563 46.475,252.897 47.5,252.5 Z"/></g>
<g><path style="opacity:1" fill="#5e838e" d="M 71.5,218.5 C 79.687,226.025 88.687,232.359 98.5,237.5C 101.008,239.924 104.008,241.59 107.5,242.5C 114.604,246.541 122.271,249.207 130.5,250.5C 129.791,251.404 128.791,251.737 127.5,251.5C 125.466,256.964 123.799,262.631 122.5,268.5C 119.312,267.075 116.312,265.408 113.5,263.5C 109.952,261.559 106.286,259.893 102.5,258.5C 98.0074,256.421 93.674,254.088 89.5,251.5C 87.9991,250.248 86.3325,249.248 84.5,248.5C 84.5,248.167 84.5,247.833 84.5,247.5C 86.2838,247.893 87.9505,248.559 89.5,249.5C 94.6132,252.559 99.9466,255.392 105.5,258C 108.5,258.667 111.5,258.667 114.5,258C 115.749,255.79 115.582,253.624 114,251.5C 109.399,247.787 104.565,244.453 99.5,241.5C 91.7121,236.219 84.0454,230.719 76.5,225C 74.2101,223.223 72.5434,221.056 71.5,218.5 Z"/></g>
<g><path style="opacity:0.004" fill="#85a1a9" d="M 133.5,252.5 C 133.833,252.5 134.167,252.5 134.5,252.5C 134.672,253.492 134.338,254.158 133.5,254.5C 133.5,253.833 133.5,253.167 133.5,252.5 Z"/></g>
<g><path style="opacity:0.012" fill="#72919d" d="M 11.5,254.5 C 11.8333,254.5 12.1667,254.5 12.5,254.5C 12.3147,255.17 11.9813,255.17 11.5,254.5 Z"/></g>
<g><path style="opacity:0.012" fill="#7e9da5" d="M 132.5,254.5 C 132.833,254.5 133.167,254.5 133.5,254.5C 133.315,255.17 132.981,255.17 132.5,254.5 Z"/></g>
<g><path style="opacity:0.007" fill="#75a6b3" d="M 145.5,253.5 C 145.5,254.833 145.5,256.167 145.5,257.5C 144.167,256.167 144.167,254.833 145.5,253.5 Z"/></g>
<g><path style="opacity:0.012" fill="#6d858c" d="M 200.5,253.5 C 201.525,253.897 201.692,254.563 201,255.5C 200.536,254.906 200.369,254.239 200.5,253.5 Z"/></g>
<g><path style="opacity:0.008" fill="#74939f" d="M 10.5,255.5 C 10.8333,255.5 11.1667,255.5 11.5,255.5C 11.3147,256.17 10.9813,256.17 10.5,255.5 Z"/></g>
<g><path style="opacity:0.004" fill="#6e96a0" d="M 1.5,256.5 C 1.5,256.833 1.5,257.167 1.5,257.5C 0.829857,257.019 0.829857,256.685 1.5,256.5 Z"/></g>
<g><path style="opacity:0.004" fill="#7594a0" d="M 8.5,257.5 C 8.5,257.167 8.5,256.833 8.5,256.5C 9.16667,256.5 9.83333,256.5 10.5,256.5C 10.1583,257.338 9.49162,257.672 8.5,257.5 Z"/></g>
<g><path style="opacity:0.008" fill="#7898a1" d="M 131.5,255.5 C 131.833,255.5 132.167,255.5 132.5,255.5C 132.672,256.492 132.338,257.158 131.5,257.5C 131.5,256.833 131.5,256.167 131.5,255.5 Z"/></g>
<g><path style="opacity:0.008" fill="#6a8b95" d="M 1.5,257.5 C 2.55198,257.351 3.55198,257.517 4.5,258C 3.25057,258.74 2.25057,258.573 1.5,257.5 Z"/></g>
<g><path style="opacity:0.012" fill="#6f8f9a" d="M 8.5,257.5 C 7.74943,258.573 6.74943,258.74 5.5,258C 6.44802,257.517 7.44802,257.351 8.5,257.5 Z"/></g>
<g><path style="opacity:0.008" fill="#70888f" d="M 199.5,256.5 C 200.525,256.897 200.692,257.563 200,258.5C 199.536,257.906 199.369,257.239 199.5,256.5 Z"/></g>
<g><path style="opacity:1" fill="#88bcca" d="M 48.5,241.5 C 52.7146,251.559 59.3812,259.726 68.5,266C 72.9115,267.497 77.2449,267.497 81.5,266C 86.2515,261.975 88.9182,257.142 89.5,251.5C 93.674,254.088 98.0074,256.421 102.5,258.5C 100.865,263.887 98.365,268.887 95,273.5C 93.1394,274.764 91.1394,275.764 89,276.5C 83.3164,276.046 78.4831,273.879 74.5,270C 71.8832,269.178 69.2165,268.678 66.5,268.5C 65.4097,266.563 64.0764,264.73 62.5,263C 58.9755,260.137 55.4755,257.303 52,254.5C 50.4349,251.038 48.6016,247.705 46.5,244.5C 46.4534,242.962 47.1201,241.962 48.5,241.5 Z"/></g>
<g><path style="opacity:0.004" fill="#809da6" d="M 130.5,257.5 C 130.833,257.5 131.167,257.5 131.5,257.5C 131.672,258.492 131.338,259.158 130.5,259.5C 130.5,258.833 130.5,258.167 130.5,257.5 Z"/></g>
<g><path style="opacity:0.01" fill="#7aadbc" d="M 145.5,257.5 C 145.833,257.5 146.167,257.5 146.5,257.5C 146.167,274.833 145.833,274.833 145.5,257.5 Z"/></g>
<g><path style="opacity:0.008" fill="#7e9da5" d="M 129.5,259.5 C 129.833,259.5 130.167,259.5 130.5,259.5C 130.315,260.17 129.981,260.17 129.5,259.5 Z"/></g>
<g><path style="opacity:0.008" fill="#7c9ca4" d="M 128.5,260.5 C 128.833,260.5 129.167,260.5 129.5,260.5C 129.315,261.17 128.981,261.17 128.5,260.5 Z"/></g>
<g><path style="opacity:0.004" fill="#758e95" d="M 198.5,261.5 C 198.369,260.761 198.536,260.094 199,259.5C 199.692,260.437 199.525,261.103 198.5,261.5 Z"/></g>
<g><path style="opacity:1" fill="#78a8b6" d="M 102.5,258.5 C 106.286,259.893 109.952,261.559 113.5,263.5C 114.204,270.58 112.204,276.747 107.5,282C 105.801,282.958 103.967,283.458 102,283.5C 96.3937,282.462 90.8937,281.128 85.5,279.5C 78.6678,276.588 72.3344,272.921 66.5,268.5C 69.2165,268.678 71.8832,269.178 74.5,270C 78.4831,273.879 83.3164,276.046 89,276.5C 91.1394,275.764 93.1394,274.764 95,273.5C 98.365,268.887 100.865,263.887 102.5,258.5 Z"/></g>
<g><path style="opacity:0.008" fill="#748c93" d="M 197.5,261.5 C 197.833,261.5 198.167,261.5 198.5,261.5C 198.672,262.492 198.338,263.158 197.5,263.5C 197.5,262.833 197.5,262.167 197.5,261.5 Z"/></g>
<g><path style="opacity:0.012" fill="#7f99a2" d="M 128.5,261.5 C 128.664,264.187 128.497,266.854 128,269.5C 127.199,266.633 127.366,263.966 128.5,261.5 Z"/></g>
<g><path style="opacity:0.008" fill="#738d94" d="M 196.5,263.5 C 196.833,263.5 197.167,263.5 197.5,263.5C 197.672,264.492 197.338,265.158 196.5,265.5C 196.5,264.833 196.5,264.167 196.5,263.5 Z"/></g>
<g><path style="opacity:0.008" fill="#758e95" d="M 195.5,265.5 C 195.833,265.5 196.167,265.5 196.5,265.5C 196.672,266.492 196.338,267.158 195.5,267.5C 195.5,266.833 195.5,266.167 195.5,265.5 Z"/></g>
<g><path style="opacity:0.004" fill="#edbdc6" d="M 51.5,268.5 C 52.8333,269.167 52.8333,269.167 51.5,268.5 Z"/></g>
<g><path style="opacity:0.997" fill="#70939d" d="M 130.5,250.5 C 131.5,250.5 132.5,250.5 133.5,250.5C 133.5,251.167 133.5,251.833 133.5,252.5C 132.662,252.842 132.328,253.508 132.5,254.5C 131.833,254.5 131.5,254.833 131.5,255.5C 130.662,255.842 130.328,256.508 130.5,257.5C 129.662,257.842 129.328,258.508 129.5,259.5C 128.833,259.5 128.5,259.833 128.5,260.5C 127.235,261.514 126.569,263.014 126.5,265C 125.879,270.183 125.212,275.349 124.5,280.5C 123.662,280.842 123.328,281.508 123.5,282.5C 122.833,282.5 122.5,282.833 122.5,283.5C 121.833,283.5 121.5,283.833 121.5,284.5C 120.833,284.5 120.5,284.833 120.5,285.5C 119.833,285.5 119.5,285.833 119.5,286.5C 114.547,287.329 109.547,287.663 104.5,287.5C 101.381,286.13 98.0477,285.13 94.5,284.5C 93.3285,283.655 91.9952,282.989 90.5,282.5C 89.3951,281.4 88.0618,280.733 86.5,280.5C 85.8333,280.5 85.5,280.167 85.5,279.5C 90.8937,281.128 96.3937,282.462 102,283.5C 103.967,283.458 105.801,282.958 107.5,282C 112.204,276.747 114.204,270.58 113.5,263.5C 116.312,265.408 119.312,267.075 122.5,268.5C 123.799,262.631 125.466,256.964 127.5,251.5C 128.791,251.737 129.791,251.404 130.5,250.5 Z"/></g>
<g><path style="opacity:0.004" fill="#779199" d="M 194.5,267.5 C 194.833,267.5 195.167,267.5 195.5,267.5C 195.672,268.492 195.338,269.158 194.5,269.5C 194.5,268.833 194.5,268.167 194.5,267.5 Z"/></g>
<g><path style="opacity:0.012" fill="#748f96" d="M 193.5,269.5 C 193.833,269.5 194.167,269.5 194.5,269.5C 194.315,270.17 193.981,270.17 193.5,269.5 Z"/></g>
<g><path style="opacity:0.012" fill="#78949b" d="M 192.5,271.5 C 193.833,272.167 193.833,272.167 192.5,271.5 Z"/></g>
<g><path style="opacity:1" fill="#81b1bf" d="M 191.5,194.5 C 191.5,193.833 191.833,193.5 192.5,193.5C 194.48,194.848 195.647,196.848 196,199.5C 197.249,217.42 195.749,235.086 191.5,252.5C 191.634,256.871 190.468,260.871 188,264.5C 182.266,271.621 177.266,279.288 173,287.5C 170.612,289.293 168.446,291.293 166.5,293.5C 157.702,302.798 148.702,311.965 139.5,321C 138.906,321.464 138.239,321.631 137.5,321.5C 143.173,315.494 148.84,309.494 154.5,303.5C 156.539,298.746 159.539,294.746 163.5,291.5C 167.497,282.989 172.83,275.489 179.5,269C 181.475,263.034 184.308,257.534 188,252.5C 188.812,248.23 190.312,244.23 192.5,240.5C 194.488,226.236 194.988,211.902 194,197.5C 193.764,195.881 192.931,194.881 191.5,194.5 Z"/></g>
<g><path style="opacity:0.008" fill="#7c97a0" d="M 126.5,270.5 C 127.622,272.288 127.789,274.288 127,276.5C 126.505,274.527 126.338,272.527 126.5,270.5 Z"/></g>
<g><path style="opacity:0.004" fill="#77939a" d="M 191.5,272.5 C 191.833,272.5 192.167,272.5 192.5,272.5C 192.672,273.492 192.338,274.158 191.5,274.5C 191.5,273.833 191.5,273.167 191.5,272.5 Z"/></g>
<g><path style="opacity:0.016" fill="#77949b" d="M 190.5,274.5 C 190.833,274.5 191.167,274.5 191.5,274.5C 191.315,275.17 190.981,275.17 190.5,274.5 Z"/></g>
<g><path style="opacity:1" fill="#aa737a" d="M 62.5,266.5 C 63.8333,267.167 65.1667,267.833 66.5,268.5C 72.3344,272.921 78.6678,276.588 85.5,279.5C 85.5,280.167 85.8333,280.5 86.5,280.5C 85.8413,283.455 85.5079,286.455 85.5,289.5C 84.1266,289.657 82.7932,289.49 81.5,289C 76.5231,285.076 71.5231,281.243 66.5,277.5C 64.502,275.4 62.3353,273.4 60,271.5C 59.2938,269.045 60.1271,267.378 62.5,266.5 Z"/></g>
<g><path style="opacity:0.008" fill="#75929a" d="M 189.5,275.5 C 189.833,275.5 190.167,275.5 190.5,275.5C 190.672,276.492 190.338,277.158 189.5,277.5C 189.5,276.833 189.5,276.167 189.5,275.5 Z"/></g>
<g><path style="opacity:1" fill="#f0b8c3" d="M 57.5,267.5 C 57.3433,268.873 57.51,270.207 58,271.5C 61.7258,275.611 65.5592,279.611 69.5,283.5C 69.9612,285.55 70.6279,287.55 71.5,289.5C 59.1786,297.256 52.3453,293.922 51,279.5C 49.8873,278.695 48.7206,278.028 47.5,277.5C 49.1667,272.5 52.5,269.167 57.5,267.5 Z"/></g>
<g><path style="opacity:0.016" fill="#77949b" d="M 188.5,277.5 C 188.833,277.5 189.167,277.5 189.5,277.5C 189.315,278.17 188.981,278.17 188.5,277.5 Z"/></g>
<g><path style="opacity:0.012" fill="#7f9ba3" d="M 125.5,277.5 C 126.525,277.897 126.692,278.563 126,279.5C 125.536,278.906 125.369,278.239 125.5,277.5 Z"/></g>
<g><path style="opacity:0.004" fill="#79969e" d="M 187.5,278.5 C 187.833,278.5 188.167,278.5 188.5,278.5C 188.672,279.492 188.338,280.158 187.5,280.5C 187.5,279.833 187.5,279.167 187.5,278.5 Z"/></g>
<g><path style="opacity:0.998" fill="#698a94" d="M 199.5,190.5 C 199.194,193.385 199.527,196.052 200.5,198.5C 200.5,199.167 200.833,199.5 201.5,199.5C 202.983,212.453 203.649,225.453 203.5,238.5C 202.139,243.304 201.139,248.304 200.5,253.5C 199.596,254.209 199.263,255.209 199.5,256.5C 198.069,257.78 197.402,259.447 197.5,261.5C 196.662,261.842 196.328,262.508 196.5,263.5C 195.662,263.842 195.328,264.508 195.5,265.5C 194.662,265.842 194.328,266.508 194.5,267.5C 193.662,267.842 193.328,268.508 193.5,269.5C 192.662,269.842 192.328,270.508 192.5,271.5C 191.833,271.5 191.5,271.833 191.5,272.5C 190.662,272.842 190.328,273.508 190.5,274.5C 189.833,274.5 189.5,274.833 189.5,275.5C 188.662,275.842 188.328,276.508 188.5,277.5C 187.833,277.5 187.5,277.833 187.5,278.5C 186.662,278.842 186.328,279.508 186.5,280.5C 185.833,280.5 185.5,280.833 185.5,281.5C 184.833,281.5 184.5,281.833 184.5,282.5C 183.662,282.842 183.328,283.508 183.5,284.5C 182.833,284.5 182.5,284.833 182.5,285.5C 181.833,285.5 181.5,285.833 181.5,286.5C 179.806,287.527 178.473,288.861 177.5,290.5C 173.691,291.071 170.357,292.738 167.5,295.5C 166.702,295.043 166.369,294.376 166.5,293.5C 168.446,291.293 170.612,289.293 173,287.5C 177.266,279.288 182.266,271.621 188,264.5C 190.468,260.871 191.634,256.871 191.5,252.5C 193.531,249.315 195.197,245.815 196.5,242C 198.526,227.575 199.026,213.075 198,198.5C 197.668,195.457 196.168,193.457 193.5,192.5C 194.99,190.72 196.99,190.054 199.5,190.5 Z"/></g>
<g><path style="opacity:0.012" fill="#7a979f" d="M 186.5,280.5 C 186.833,280.5 187.167,280.5 187.5,280.5C 187.315,281.17 186.981,281.17 186.5,280.5 Z"/></g>
<g><path style="opacity:0.008" fill="#dfa9b4" d="M 42.5,281.5 C 43.525,281.897 43.6917,282.563 43,283.5C 42.5357,282.906 42.369,282.239 42.5,281.5 Z"/></g>
<g><path style="opacity:0.004" fill="#809da5" d="M 124.5,280.5 C 125.833,281.167 125.833,281.833 124.5,282.5C 124.5,281.833 124.5,281.167 124.5,280.5 Z"/></g>
<g><path style="opacity:0.016" fill="#76959c" d="M 185.5,281.5 C 185.833,281.5 186.167,281.5 186.5,281.5C 186.315,282.17 185.981,282.17 185.5,281.5 Z"/></g>
<g><path style="opacity:0.012" fill="#7d9da5" d="M 123.5,282.5 C 123.833,282.5 124.167,282.5 124.5,282.5C 124.315,283.17 123.981,283.17 123.5,282.5 Z"/></g>
<g><path style="opacity:0.012" fill="#7799a2" d="M 122.5,283.5 C 122.833,283.5 123.167,283.5 123.5,283.5C 123.315,284.17 122.981,284.17 122.5,283.5 Z"/></g>
<g><path style="opacity:0.004" fill="#77959d" d="M 184.5,282.5 C 184.833,282.5 185.167,282.5 185.5,282.5C 185.672,283.492 185.338,284.158 184.5,284.5C 184.5,283.833 184.5,283.167 184.5,282.5 Z"/></g>
<g><path style="opacity:0.008" fill="#73949c" d="M 121.5,284.5 C 121.833,284.5 122.167,284.5 122.5,284.5C 122.315,285.17 121.981,285.17 121.5,284.5 Z"/></g>
<g><path style="opacity:0.008" fill="#7b9aa1" d="M 183.5,284.5 C 183.833,284.5 184.167,284.5 184.5,284.5C 184.315,285.17 183.981,285.17 183.5,284.5 Z"/></g>
<g><path style="opacity:0.012" fill="#daa4af" d="M 42.5,287.5 C 41.4265,286.749 41.2599,285.749 42,284.5C 42.4828,285.448 42.6495,286.448 42.5,287.5 Z"/></g>
<g><path style="opacity:0.016" fill="#779ba5" d="M 94.5,285.5 C 95.2389,285.369 95.9056,285.536 96.5,286C 95.5632,286.692 94.8966,286.525 94.5,285.5 Z"/></g>
<g><path style="opacity:0.008" fill="#75969f" d="M 120.5,285.5 C 120.833,285.5 121.167,285.5 121.5,285.5C 121.315,286.17 120.981,286.17 120.5,285.5 Z"/></g>
<g><path style="opacity:0.016" fill="#77979e" d="M 182.5,285.5 C 182.833,285.5 183.167,285.5 183.5,285.5C 183.315,286.17 182.981,286.17 182.5,285.5 Z"/></g>
<g><path style="opacity:0.012" fill="#789aa4" d="M 119.5,286.5 C 119.833,286.5 120.167,286.5 120.5,286.5C 120.315,287.17 119.981,287.17 119.5,286.5 Z"/></g>
<g><path style="opacity:0.012" fill="#82b7c6" d="M 139.5,286.5 C 140.833,287.167 140.833,287.167 139.5,286.5 Z"/></g>
<g><path style="opacity:0.016" fill="#74949b" d="M 181.5,286.5 C 181.833,286.5 182.167,286.5 182.5,286.5C 182.315,287.17 181.981,287.17 181.5,286.5 Z"/></g>
<g><path style="opacity:0.008" fill="#7296a1" d="M 104.5,287.5 C 103.399,288.598 102.066,288.765 100.5,288C 101.793,287.51 103.127,287.343 104.5,287.5 Z"/></g>
<g><path style="opacity:0.004" fill="#799ba6" d="M 119.5,287.5 C 119.103,288.525 118.437,288.692 117.5,288C 118.094,287.536 118.761,287.369 119.5,287.5 Z"/></g>
<g><path style="opacity:0.01" fill="#d6a1ac" d="M 40.5,288.5 C 41.5735,289.251 41.7401,290.251 41,291.5C 40.5172,290.552 40.3505,289.552 40.5,288.5 Z"/></g>
<g><path style="opacity:1" fill="#e2a9b5" d="M 47.5,277.5 C 48.7206,278.028 49.8873,278.695 51,279.5C 52.3453,293.922 59.1786,297.256 71.5,289.5C 70.6279,287.55 69.9612,285.55 69.5,283.5C 74.8105,286.267 76.9772,290.6 76,296.5C 68.9902,302.678 62.1569,309.011 55.5,315.5C 51.5748,319.218 47.7415,319.218 44,315.5C 43.9501,305.174 44.1168,294.84 44.5,284.5C 44.7073,281.759 45.7073,279.426 47.5,277.5 Z"/></g>
<g><path style="opacity:0.008" fill="#7498a3" d="M 105.5,289.5 C 108.976,288.357 112.642,288.19 116.5,289C 112.848,289.499 109.182,289.665 105.5,289.5 Z"/></g>
<g><path style="opacity:0.012" fill="#82b7c6" d="M 138.5,288.5 C 139.833,289.167 139.833,289.167 138.5,288.5 Z"/></g>
<g><path style="opacity:0.016" fill="#b1929a" d="M 94.5,284.5 C 94.5,284.833 94.5,285.167 94.5,285.5C 92.78,287.658 91.9467,290.325 92,293.5C 91.502,290.518 91.3354,287.518 91.5,284.5C 92.5,284.5 93.5,284.5 94.5,284.5 Z"/></g>
<g><path style="opacity:0.012" fill="#83b7c6" d="M 137.5,290.5 C 138.833,291.167 138.833,291.167 137.5,290.5 Z"/></g>
<g><path style="opacity:0.541" fill="#80b1c0" d="M 155.5,231.5 C 151.532,235.385 148.865,240.051 147.5,245.5C 151.174,260.685 149.674,275.351 143,289.5C 137.42,299.493 132.254,309.66 127.5,320C 127.43,323.992 129.43,325.492 133.5,324.5C 131.964,327.092 129.631,328.092 126.5,327.5C 126.5,326.833 126.167,326.5 125.5,326.5C 125.672,325.508 125.338,324.842 124.5,324.5C 125.095,320.385 126.095,316.385 127.5,312.5C 128.338,312.158 128.672,311.492 128.5,310.5C 129.338,310.158 129.672,309.492 129.5,308.5C 130.906,308.027 131.573,307.027 131.5,305.5C 134.008,301.818 136.008,297.818 137.5,293.5C 145.458,282.647 148.458,270.647 146.5,257.5C 146.768,255.901 146.434,254.568 145.5,253.5C 145.483,251.435 145.15,249.435 144.5,247.5C 144.672,246.508 144.338,245.842 143.5,245.5C 143.5,244.5 143.5,243.5 143.5,242.5C 146.869,238.131 150.869,234.464 155.5,231.5 Z"/></g>
<g><path style="opacity:0.016" fill="#7898a0" d="M 177.5,291.5 C 178.833,292.167 178.833,292.167 177.5,291.5 Z"/></g>
<g><path style="opacity:0.012" fill="#83b7c6" d="M 137.5,293.5 C 136.833,292.167 136.833,292.167 137.5,293.5 Z"/></g>
<g><path style="opacity:0.016" fill="#76979f" d="M 176.5,292.5 C 176.833,292.5 177.167,292.5 177.5,292.5C 177.315,293.17 176.981,293.17 176.5,292.5 Z"/></g>
<g><path style="opacity:0.01" fill="#d39faa" d="M 39.5,293.5 C 40.6129,294.946 40.7796,296.613 40,298.5C 39.5065,296.866 39.3398,295.199 39.5,293.5 Z"/></g>
<g><path style="opacity:0.016" fill="#74969e" d="M 175.5,293.5 C 175.833,293.5 176.167,293.5 176.5,293.5C 176.315,294.17 175.981,294.17 175.5,293.5 Z"/></g>
<g><path style="opacity:0.01" fill="#b9969d" d="M 90.5,296.5 C 90.369,295.761 90.5357,295.094 91,294.5C 91.6917,295.437 91.525,296.103 90.5,296.5 Z"/></g>
<g><path style="opacity:0.012" fill="#72949c" d="M 174.5,294.5 C 174.833,294.5 175.167,294.5 175.5,294.5C 175.315,295.17 174.981,295.17 174.5,294.5 Z"/></g>
<g><path style="opacity:0.012" fill="#70919a" d="M 173.5,295.5 C 173.833,295.5 174.167,295.5 174.5,295.5C 174.315,296.17 173.981,296.17 173.5,295.5 Z"/></g>
<g><path style="opacity:0.008" fill="#6e9098" d="M 172.5,296.5 C 172.833,296.5 173.167,296.5 173.5,296.5C 173.315,297.17 172.981,297.17 172.5,296.5 Z"/></g>
<g><path style="opacity:0.012" fill="#b69098" d="M 89.5,296.5 C 89.8333,296.5 90.1667,296.5 90.5,296.5C 90.1667,299.167 89.8333,299.167 89.5,296.5 Z"/></g>
<g><path style="opacity:0.004" fill="#70919a" d="M 171.5,297.5 C 171.833,297.5 172.167,297.5 172.5,297.5C 171.968,300.46 171.301,300.793 170.5,298.5C 171.167,298.5 171.5,298.167 171.5,297.5 Z"/></g>
<g><path style="opacity:0.012" fill="#bb979d" d="M 88.5,299.5 C 89.8333,300.167 89.8333,300.167 88.5,299.5 Z"/></g>
<g><path style="opacity:0.004" fill="#bc949c" d="M 87.5,300.5 C 87.8333,300.5 88.1667,300.5 88.5,300.5C 88.6716,301.492 88.3382,302.158 87.5,302.5C 87.5,301.833 87.5,301.167 87.5,300.5 Z"/></g>
<g><path style="opacity:0.012" fill="#bd969d" d="M 86.5,302.5 C 86.8333,302.5 87.1667,302.5 87.5,302.5C 87.3147,303.17 86.9813,303.17 86.5,302.5 Z"/></g>
<g><path style="opacity:0.012" fill="#b99299" d="M 85.5,303.5 C 85.8333,303.5 86.1667,303.5 86.5,303.5C 86.3147,304.17 85.9813,304.17 85.5,303.5 Z"/></g>
<g><path style="opacity:0.004" fill="#85b8c7" d="M 131.5,305.5 C 131.167,305.5 130.833,305.5 130.5,305.5C 130.833,302.833 131.167,302.833 131.5,305.5 Z"/></g>
<g><path style="opacity:0.008" fill="#c39ca3" d="M 84.5,305.5 C 85.8333,306.167 85.8333,306.167 84.5,305.5 Z"/></g>
<g><path style="opacity:0.012" fill="#8ab9c8" d="M 130.5,305.5 C 129.833,306.167 129.833,306.167 130.5,305.5 Z"/></g>
<g><path style="opacity:0.994" fill="#7497a1" d="M 177.5,290.5 C 177.5,290.833 177.5,291.167 177.5,291.5C 176.833,291.5 176.5,291.833 176.5,292.5C 175.833,292.5 175.5,292.833 175.5,293.5C 174.833,293.5 174.5,293.833 174.5,294.5C 173.833,294.5 173.5,294.833 173.5,295.5C 172.833,295.5 172.5,295.833 172.5,296.5C 171.833,296.5 171.5,296.833 171.5,297.5C 170.833,297.5 170.5,297.833 170.5,298.5C 168.167,300.167 166.167,302.167 164.5,304.5C 163.833,304.5 163.5,304.833 163.5,305.5C 162.833,305.5 162.5,305.833 162.5,306.5C 161.833,306.5 161.5,306.833 161.5,307.5C 160.833,307.5 160.5,307.833 160.5,308.5C 159.833,308.5 159.5,308.833 159.5,309.5C 158.833,309.5 158.5,309.833 158.5,310.5C 157.833,310.5 157.5,310.833 157.5,311.5C 156.833,311.5 156.5,311.833 156.5,312.5C 154.246,313.124 152.579,314.457 151.5,316.5C 150.833,316.5 150.5,316.833 150.5,317.5C 148.246,318.124 146.579,319.457 145.5,321.5C 144.833,321.5 144.5,321.833 144.5,322.5C 142.973,322.427 141.973,323.094 141.5,324.5C 140.833,324.5 140.5,324.833 140.5,325.5C 139.508,325.328 138.842,325.662 138.5,326.5C 137.833,326.5 137.5,326.833 137.5,327.5C 136.508,327.328 135.842,327.662 135.5,328.5C 134.508,328.328 133.842,328.662 133.5,329.5C 131.5,329.5 129.5,329.5 127.5,329.5C 127.5,328.833 127.167,328.5 126.5,328.5C 126.5,328.167 126.5,327.833 126.5,327.5C 129.631,328.092 131.964,327.092 133.5,324.5C 134.833,323.5 136.167,322.5 137.5,321.5C 138.239,321.631 138.906,321.464 139.5,321C 148.702,311.965 157.702,302.798 166.5,293.5C 166.369,294.376 166.702,295.043 167.5,295.5C 170.357,292.738 173.691,291.071 177.5,290.5 Z"/></g>
<g><path style="opacity:0.004" fill="#7697a1" d="M 164.5,304.5 C 166.793,305.301 166.46,305.968 163.5,306.5C 163.5,306.167 163.5,305.833 163.5,305.5C 164.167,305.5 164.5,305.167 164.5,304.5 Z"/></g>
<g><path style="opacity:0.012" fill="#c29aa1" d="M 83.5,306.5 C 83.8333,306.5 84.1667,306.5 84.5,306.5C 84.3147,307.17 83.9813,307.17 83.5,306.5 Z"/></g>
<g><path style="opacity:0.008" fill="#70929b" d="M 162.5,306.5 C 162.833,306.5 163.167,306.5 163.5,306.5C 163.315,307.17 162.981,307.17 162.5,306.5 Z"/></g>
<g><path style="opacity:0.012" fill="#d09da7" d="M 38.5,300.5 C 39.6484,304.981 39.8151,309.648 39,314.5C 38.5008,309.845 38.3342,305.179 38.5,300.5 Z"/></g>
<g><path style="opacity:0.012" fill="#c199a0" d="M 82.5,307.5 C 82.8333,307.5 83.1667,307.5 83.5,307.5C 83.3147,308.17 82.9813,308.17 82.5,307.5 Z"/></g>
<g><path style="opacity:0.012" fill="#89b8c7" d="M 129.5,308.5 C 128.833,307.167 128.833,307.167 129.5,308.5 Z"/></g>
<g><path style="opacity:0.012" fill="#73949d" d="M 161.5,307.5 C 161.833,307.5 162.167,307.5 162.5,307.5C 162.315,308.17 161.981,308.17 161.5,307.5 Z"/></g>
<g><path style="opacity:0.012" fill="#c199a0" d="M 81.5,308.5 C 81.8333,308.5 82.1667,308.5 82.5,308.5C 82.3147,309.17 81.9813,309.17 81.5,308.5 Z"/></g>
<g><path style="opacity:0.012" fill="#7597a1" d="M 160.5,308.5 C 160.833,308.5 161.167,308.5 161.5,308.5C 161.315,309.17 160.981,309.17 160.5,308.5 Z"/></g>
<g><path style="opacity:0.012" fill="#c29aa1" d="M 80.5,309.5 C 80.8333,309.5 81.1667,309.5 81.5,309.5C 81.3147,310.17 80.9813,310.17 80.5,309.5 Z"/></g>
<g><path style="opacity:0.012" fill="#89b8c7" d="M 128.5,310.5 C 127.833,309.167 127.833,309.167 128.5,310.5 Z"/></g>
<g><path style="opacity:0.016" fill="#779aa3" d="M 159.5,309.5 C 159.833,309.5 160.167,309.5 160.5,309.5C 160.315,310.17 159.981,310.17 159.5,309.5 Z"/></g>
<g><path style="opacity:0.993" fill="#ba8e97" d="M 66.5,277.5 C 71.5231,281.243 76.5231,285.076 81.5,289C 82.7932,289.49 84.1266,289.657 85.5,289.5C 85.5079,286.455 85.8413,283.455 86.5,280.5C 88.0618,280.733 89.3951,281.4 90.5,282.5C 90.6469,287.214 90.3136,291.881 89.5,296.5C 88.3263,297.514 87.6596,298.847 87.5,300.5C 86.6618,300.842 86.3284,301.508 86.5,302.5C 85.8333,302.5 85.5,302.833 85.5,303.5C 84.0937,303.973 83.427,304.973 83.5,306.5C 82.8333,306.5 82.5,306.833 82.5,307.5C 81.8333,307.5 81.5,307.833 81.5,308.5C 80.8333,308.5 80.5,308.833 80.5,309.5C 79.8333,309.5 79.5,309.833 79.5,310.5C 77.9382,310.733 76.6049,311.4 75.5,312.5C 70.1225,316.077 64.4559,318.91 58.5,321C 65.0833,313.488 71.9167,306.321 79,299.5C 79.7011,296.072 79.3677,292.738 78,289.5C 73.963,285.631 70.1296,281.631 66.5,277.5 Z"/></g>
<g><path style="opacity:0.012" fill="#c39ba2" d="M 79.5,310.5 C 79.8333,310.5 80.1667,310.5 80.5,310.5C 80.3147,311.17 79.9813,311.17 79.5,310.5 Z"/></g>
<g><path style="opacity:0.016" fill="#789ba4" d="M 158.5,310.5 C 158.833,310.5 159.167,310.5 159.5,310.5C 159.315,311.17 158.981,311.17 158.5,310.5 Z"/></g>
<g><path style="opacity:0.008" fill="#c49ca3" d="M 79.5,311.5 C 78.8333,312.167 78.8333,312.167 79.5,311.5 Z"/></g>
<g><path style="opacity:0.012" fill="#88b7c6" d="M 127.5,312.5 C 126.833,311.167 126.833,311.167 127.5,312.5 Z"/></g>
<g><path style="opacity:0.016" fill="#799da5" d="M 157.5,311.5 C 157.833,311.5 158.167,311.5 158.5,311.5C 158.315,312.17 157.981,312.17 157.5,311.5 Z"/></g>
<g><path style="opacity:0.004" fill="#c69da4" d="M 78.5,312.5 C 77.8333,313.167 77.8333,313.167 78.5,312.5 Z"/></g>
<g><path style="opacity:0.012" fill="#7a9da6" d="M 156.5,312.5 C 156.833,312.5 157.167,312.5 157.5,312.5C 157.315,313.17 156.981,313.17 156.5,312.5 Z"/></g>
<g><path style="opacity:0.012" fill="#c0969d" d="M 75.5,313.5 C 76.8333,314.167 76.8333,314.167 75.5,313.5 Z"/></g>
<g><path style="opacity:0.012" fill="#88b7c6" d="M 125.5,313.5 C 126.833,314.167 126.833,314.167 125.5,313.5 Z"/></g>
<g><path style="opacity:0.016" fill="#c399a1" d="M 74.5,314.5 C 74.8333,314.5 75.1667,314.5 75.5,314.5C 75.3147,315.17 74.9813,315.17 74.5,314.5 Z"/></g>
<g><path style="opacity:0.012" fill="#c59ca3" d="M 73.5,315.5 C 73.8333,315.5 74.1667,315.5 74.5,315.5C 74.3147,316.17 73.9813,316.17 73.5,315.5 Z"/></g>
<g><path style="opacity:0.012" fill="#cf9fa8" d="M 40.5,315.5 C 40.631,316.239 40.4643,316.906 40,317.5C 39.3083,316.563 39.475,315.897 40.5,315.5 Z"/></g>
<g><path style="opacity:1" fill="#d09ea8" d="M 60.5,265.5 C 61.4916,265.328 62.1583,265.662 62.5,266.5C 60.1271,267.378 59.2938,269.045 60,271.5C 62.3353,273.4 64.502,275.4 66.5,277.5C 70.1296,281.631 73.963,285.631 78,289.5C 79.3677,292.738 79.7011,296.072 79,299.5C 71.9167,306.321 65.0833,313.488 58.5,321C 64.4559,318.91 70.1225,316.077 75.5,312.5C 75.5,312.833 75.5,313.167 75.5,313.5C 74.8333,313.5 74.5,313.833 74.5,314.5C 73.8333,314.5 73.5,314.833 73.5,315.5C 72.5084,315.328 71.8417,315.662 71.5,316.5C 70.8333,316.5 70.5,316.833 70.5,317.5C 69.8333,317.5 69.5,317.833 69.5,318.5C 68.5084,318.328 67.8417,318.662 67.5,319.5C 66.8333,319.5 66.5,319.833 66.5,320.5C 65.5084,320.328 64.8417,320.662 64.5,321.5C 62.9731,321.427 61.9731,322.094 61.5,323.5C 58.6557,324.058 55.8224,324.725 53,325.5C 51.175,325.057 49.3417,324.723 47.5,324.5C 47.1583,323.662 46.4916,323.328 45.5,323.5C 44.396,321.611 43.0627,319.945 41.5,318.5C 41.7373,317.209 41.404,316.209 40.5,315.5C 40.3375,306.099 41.0041,296.766 42.5,287.5C 43.1667,286.5 43.8333,285.5 44.5,284.5C 44.1168,294.84 43.9501,305.174 44,315.5C 47.7415,319.218 51.5748,319.218 55.5,315.5C 62.1569,309.011 68.9902,302.678 76,296.5C 76.9772,290.6 74.8105,286.267 69.5,283.5C 65.5592,279.611 61.7258,275.611 58,271.5C 57.51,270.207 57.3433,268.873 57.5,267.5C 58.2905,266.599 59.2905,265.932 60.5,265.5 Z"/></g>
<g><path style="opacity:0.004" fill="#c397a0" d="M 71.5,317.5 C 71.5,317.167 71.5,316.833 71.5,316.5C 72.1667,316.5 72.8333,316.5 73.5,316.5C 73.1583,317.338 72.4916,317.672 71.5,317.5 Z"/></g>
<g><path style="opacity:0.012" fill="#769aa3" d="M 151.5,316.5 C 152.833,317.167 152.833,317.167 151.5,316.5 Z"/></g>
<g><path style="opacity:0.016" fill="#c399a0" d="M 70.5,317.5 C 70.8333,317.5 71.1667,317.5 71.5,317.5C 71.3147,318.17 70.9813,318.17 70.5,317.5 Z"/></g>
<g><path style="opacity:0.016" fill="#799da7" d="M 150.5,317.5 C 150.833,317.5 151.167,317.5 151.5,317.5C 151.315,318.17 150.981,318.17 150.5,317.5 Z"/></g>
<g><path style="opacity:0.012" fill="#c89ca4" d="M 41.5,318.5 C 40.8333,319.167 40.8333,319.167 41.5,318.5 Z"/></g>
<g><path style="opacity:0.012" fill="#c79da4" d="M 69.5,318.5 C 69.8333,318.5 70.1667,318.5 70.5,318.5C 70.3147,319.17 69.9813,319.17 69.5,318.5 Z"/></g>
<g><path style="opacity:0.004" fill="#c79ca4" d="M 67.5,320.5 C 67.5,320.167 67.5,319.833 67.5,319.5C 68.1667,319.5 68.8333,319.5 69.5,319.5C 69.1583,320.338 68.4916,320.672 67.5,320.5 Z"/></g>
<g><path style="opacity:0.004" fill="#c19aa1" d="M 41.5,320.5 C 42.8333,321.167 42.8333,321.167 41.5,320.5 Z"/></g>
<g><path style="opacity:0.012" fill="#c79da4" d="M 66.5,320.5 C 66.8333,320.5 67.1667,320.5 67.5,320.5C 67.3147,321.17 66.9813,321.17 66.5,320.5 Z"/></g>
<g><path style="opacity:0.004" fill="#c89ca5" d="M 64.5,322.5 C 64.5,322.167 64.5,321.833 64.5,321.5C 65.1667,321.5 65.8333,321.5 66.5,321.5C 66.1583,322.338 65.4916,322.672 64.5,322.5 Z"/></g>
<g><path style="opacity:0.016" fill="#799ea8" d="M 145.5,321.5 C 146.833,322.167 146.833,322.167 145.5,321.5 Z"/></g>
<g><path style="opacity:0.012" fill="#c89ea5" d="M 64.5,322.5 C 63.8333,323.167 63.8333,323.167 64.5,322.5 Z"/></g>
<g><path style="opacity:0.004" fill="#81adbb" d="M 122.5,321.5 C 123.525,321.897 123.692,322.563 123,323.5C 122.536,322.906 122.369,322.239 122.5,321.5 Z"/></g>
<g><path style="opacity:0.012" fill="#7ba0a9" d="M 144.5,322.5 C 144.833,322.5 145.167,322.5 145.5,322.5C 145.315,323.17 144.981,323.17 144.5,322.5 Z"/></g>
<g><path style="opacity:0.008" fill="#c59ea5" d="M 45.5,323.5 C 44.8333,324.167 44.8333,324.167 45.5,323.5 Z"/></g>
<g><path style="opacity:0.012" fill="#c89da5" d="M 61.5,323.5 C 62.8333,324.167 62.8333,324.167 61.5,323.5 Z"/></g>
<g><path style="opacity:0.008" fill="#7da2ab" d="M 144.5,323.5 C 143.833,324.167 143.833,324.167 144.5,323.5 Z"/></g>
<g><path style="opacity:0.012" fill="#c499a1" d="M 47.5,324.5 C 47.5,324.833 47.5,325.167 47.5,325.5C 46.8299,325.019 46.8299,324.685 47.5,324.5 Z"/></g>
<g><path style="opacity:0.012" fill="#c99ea6" d="M 59.5,324.5 C 60.8333,325.167 60.8333,325.167 59.5,324.5 Z"/></g>
<g><path style="opacity:0.012" fill="#799ea7" d="M 141.5,324.5 C 142.833,325.167 142.833,325.167 141.5,324.5 Z"/></g>
<g><path style="opacity:0.012" fill="#ca9ea7" d="M 47.5,325.5 C 48.2389,325.369 48.9056,325.536 49.5,326C 48.5632,326.692 47.8966,326.525 47.5,325.5 Z"/></g>
<g><path style="opacity:0.008" fill="#cc9ea7" d="M 56.5,326.5 C 56.8966,325.475 57.5632,325.308 58.5,326C 57.9056,326.464 57.2389,326.631 56.5,326.5 Z"/></g>
<g><path style="opacity:0.008" fill="#83acb9" d="M 124.5,324.5 C 124.5,325.167 124.5,325.833 124.5,326.5C 123.167,325.833 123.167,325.167 124.5,324.5 Z"/></g>
<g><path style="opacity:0.012" fill="#7ca1aa" d="M 140.5,325.5 C 140.833,325.5 141.167,325.5 141.5,325.5C 141.315,326.17 140.981,326.17 140.5,325.5 Z"/></g>
<g><path style="opacity:0.008" fill="#cfa2ab" d="M 50.5,327.5 C 51.9464,326.387 53.6131,326.22 55.5,327C 53.8659,327.494 52.1992,327.66 50.5,327.5 Z"/></g>
<g><path style="opacity:0.004" fill="#7ca0aa" d="M 138.5,327.5 C 138.5,327.167 138.5,326.833 138.5,326.5C 139.167,326.5 139.833,326.5 140.5,326.5C 140.158,327.338 139.492,327.672 138.5,327.5 Z"/></g>
<g><path style="opacity:0.004" fill="#81adb9" d="M 124.5,326.5 C 124.833,326.5 125.167,326.5 125.5,326.5C 125.5,327.167 125.5,327.833 125.5,328.5C 124.662,328.158 124.328,327.492 124.5,326.5 Z"/></g>
<g><path style="opacity:0.012" fill="#7da2ab" d="M 137.5,327.5 C 137.833,327.5 138.167,327.5 138.5,327.5C 138.315,328.17 137.981,328.17 137.5,327.5 Z"/></g>
<g><path style="opacity:0.008" fill="#7ea4ad" d="M 125.5,328.5 C 125.833,328.5 126.167,328.5 126.5,328.5C 126.5,328.833 126.5,329.167 126.5,329.5C 126.167,329.167 125.833,328.833 125.5,328.5 Z"/></g>
<g><path style="opacity:0.004" fill="#7ea2ac" d="M 135.5,329.5 C 135.5,329.167 135.5,328.833 135.5,328.5C 136.167,328.5 136.833,328.5 137.5,328.5C 137.5,328.833 137.5,329.167 137.5,329.5C 136.833,329.5 136.167,329.5 135.5,329.5 Z"/></g>
</svg>
